<svg xmlns="http://www.w3.org/2000/svg" viewBox="0 0 154.5 140.62"><defs><style>.cls-1{fill:#ddebff;}.cls-1,.cls-4{opacity:0.5;}.cls-2{opacity:0.1;}.cls-3{fill:#463e3b;}.cls-4{fill:#8bd2ff;}.cls-5{fill:none;stroke:#fff;stroke-miterlimit:10;stroke-width:3px;}.cls-6{fill:#fff072;}.cls-7{fill:#fff;}.cls-8{opacity:0.25;}.cls-9{fill:#6262a0;}.cls-10{fill:#deba5a;}.cls-11{fill:#60609a;}.cls-12{fill:#d0d7e2;}.cls-13{fill:#e1e7f2;}.cls-14{fill:#c7d2eb;opacity:0.4;}</style></defs><title>Asset 360</title><g id="Layer_2" data-name="Layer 2"><g id="Layer_1-2" data-name="Layer 1"><path class="cls-1" d="M154.5,60.21a41,41,0,0,0-31.18-40,58.48,58.48,0,0,0-93.59,7,44.07,44.07,0,0,0-.08,83.31,34.52,34.52,0,0,0,66.88,6.88,59,59,0,0,0,26.37-17A41,41,0,0,0,154.5,60.21Z"/><g class="cls-2"><path class="cls-3" d="M56,130.15H37.49v-9.5H56Zm-17.74-.75h17v-8h-17Z"/><path class="cls-3" d="M69.28,139.41H50.8v-9.5H69.28Zm-17.74-.75h17v-8h-17Z"/></g><g class="cls-2"><path class="cls-3" d="M134.2,59.75H115.71V51H134.2ZM116.46,59h17V51.79h-17Z"/><path class="cls-3" d="M147.5,68.18H129V59.47H147.5Zm-17.74-.75h17V60.22h-17Z"/></g><g class="cls-2"><path class="cls-3" d="M95.09,20.54H76.6V11.83H95.09Zm-17.74-.75h17V12.58h-17Z"/><path class="cls-3" d="M81.79,29H63.3V20.26H81.79Zm-17.74-.75H81V21h-17Z"/></g><polygon class="cls-4" points="126.68 46.77 124.08 45.56 121.23 45.72 121.58 42.88 120.55 40.21 123.36 39.66 125.58 37.86 126.96 40.36 129.37 41.92 127.41 44.01 126.68 46.77"/><polygon class="cls-4" points="29.75 65.95 27.16 64.74 24.3 64.89 24.65 62.05 23.62 59.38 26.43 58.84 28.65 57.04 30.04 59.54 32.44 61.09 30.48 63.18 29.75 65.95"/><polygon class="cls-4" points="115.62 100.57 113.03 99.36 110.17 99.51 110.53 96.67 109.5 94.01 112.3 93.46 114.52 91.66 115.91 94.16 118.31 95.72 116.36 97.81 115.62 100.57"/><polygon class="cls-4" points="48.3 100.57 45.7 99.36 42.85 99.51 43.2 96.67 42.17 94.01 44.98 93.46 47.2 91.66 48.58 94.16 50.98 95.72 49.03 97.81 48.3 100.57"/><path class="cls-5" d="M77.27,89.05"/><path class="cls-6" d="M54.46,86.58a23.81,23.81,0,0,1,8,17.74v4.5H90.56v-4.49a23.21,23.21,0,0,1,7.7-17.51,33.06,33.06,0,1,0-43.79-.23Z"/><path class="cls-7" d="M73.8,33.43a33.06,33.06,0,0,1,35.22,33c0,.59,0,1.17,0,1.74a33.05,33.05,0,1,0-65.45-8.72c0,.32,0,.63,0,.94A33.21,33.21,0,0,1,73.8,33.43Z"/><g class="cls-8"><path class="cls-9" d="M74.59,110h-1V74.33H70.3A4.28,4.28,0,1,1,74.59,70v3.28H76.3v1H74.59ZM70.3,66.76a3.28,3.28,0,0,0,0,6.56h3.28V70A3.29,3.29,0,0,0,70.3,66.76Z"/><path class="cls-9" d="M79,110H78V74.34H76.31v-1H78V70.05a4.28,4.28,0,1,1,4.28,4.28H79Zm0-36.66H82.3A3.28,3.28,0,1,0,79,70.05Z"/></g><path class="cls-10" d="M108.79,61.83A33,33,0,0,1,97.49,86.7a23.22,23.22,0,0,0-7.71,17.51v4.49H85.27c-.68-9.9-.34-20.3,5.68-28,2.54-3.22,5.89-5.68,8.78-8.59a39.13,39.13,0,0,0,8.84-13.92A29.18,29.18,0,0,1,108.79,61.83Z"/><path class="cls-11" d="M91.41,110.07H61.28v-5.5a22.84,22.84,0,0,0-7.63-17,34.05,34.05,0,1,1,45.12.24,22.17,22.17,0,0,0-7.36,16.76Zm-28.13-2H89.41v-3.49a24.17,24.17,0,0,1,8-18.26A32.06,32.06,0,1,0,55,86.09h0a24.84,24.84,0,0,1,8.3,18.48Z"/><rect class="cls-7" x="74.09" y="7.32" width="4.8" height="16.61"/><rect class="cls-7" x="108.23" y="19.68" width="4.8" height="16.61" transform="translate(52.19 -70.03) rotate(45)"/><rect class="cls-7" x="41.25" y="17.65" width="4.8" height="16.61" transform="translate(-6.57 33.48) rotate(-39.26)"/><circle class="cls-12" cx="76.19" cy="124.96" r="12.46"/><path class="cls-13" d="M62.78,108.17H89.6a1.68,1.68,0,0,1,1.68,1.68v16a2.65,2.65,0,0,1-2.65,2.65H63.75a2.65,2.65,0,0,1-2.65-2.65v-16a1.68,1.68,0,0,1,1.68-1.68Z"/><path class="cls-14" d="M91.29,110.65V125.4a3.41,3.41,0,0,1-3.14,3.4,12.47,12.47,0,0,1-12,8.93,12.29,12.29,0,0,1-5.09-1.09,31,31,0,0,0,8.32-7.83c.42-.58.83-1.18,1.2-1.79a27.71,27.71,0,0,0,3.88-11c.29-2.28-.23-5.86-.53-8.13l2.18,0h.54l1.71.65v0h.72A2.17,2.17,0,0,1,91.29,110.65Z"/><path class="cls-11" d="M76.4,138.42a13.53,13.53,0,0,1-2.84-.31,13.77,13.77,0,0,1-1.34-.37,13.49,13.49,0,0,1-8.57-8.51,4.94,4.94,0,0,1-3.33-4.66V110.67a3.49,3.49,0,0,1,3.49-3.49H89.34a3.17,3.17,0,0,1,3.17,3.17v14.75a4.44,4.44,0,0,1-3.38,4.29c-.09.25-.19.52-.3.78l-.06.13c-.15.35-.32.7-.5,1l-.94-.37.88.48a13.46,13.46,0,0,1-2.24,3l-.12.12c-.29.28-.52.49-.76.69l-.28.23c-.22.18-.44.34-.67.5l-.33.23c-.24.16-.49.31-.74.45l-.09.06-.21.12q-.5.27-1,.5l-.34.14-.14.05-.64.23-.57.17-.6.15-.61.13-.6.09-.63.08-.52,0-.3,0ZM63.79,109.18a1.49,1.49,0,0,0-1.49,1.49v13.92a2.93,2.93,0,0,0,2.33,2.86l.59.12.17.58a11.45,11.45,0,0,0,7.38,7.69,11.13,11.13,0,0,0,1.17.33,9.91,9.91,0,0,0,2.7.26l.37,0,.42,0,.45-.06.6-.09.52-.11.51-.13.49-.14.54-.2.16-.06.25-.1q.45-.19.88-.42l.26-.15c.21-.12.42-.25.63-.38l.28-.2.57-.43.24-.2c.21-.17.4-.35.6-.54l.16-.15a11.44,11.44,0,0,0,1.9-2.55l.93.38-.88-.47q.23-.43.43-.88l0-.11c.14-.32.26-.66.36-1l.26-.74.68-.15a2.42,2.42,0,0,0,2.22-2.4V110.34a1.17,1.17,0,0,0-1.17-1.17Z"/></g></g></svg>