<svg xmlns="http://www.w3.org/2000/svg" viewBox="0 0 147.88 134.41"><defs><style>.cls-1{fill:#ddebff;}.cls-1,.cls-4{opacity:0.5;}.cls-2{opacity:0.1;}.cls-3{fill:#463e3b;}.cls-4{fill:#8bd2ff;}.cls-5{fill:none;stroke:#fff;stroke-miterlimit:10;stroke-width:3px;}.cls-6{fill:#e6f4ff;}.cls-7{fill:#fff;}.cls-8{fill:#ceeaff;}.cls-9{fill:#60609a;}</style></defs><title>Asset 280</title><g id="Layer_2" data-name="Layer 2"><g id="Layer_1-2" data-name="Layer 1"><path class="cls-1" d="M147.88,57.54A39.21,39.21,0,0,0,118,19.28,56,56,0,0,0,28.45,26a42.1,42.1,0,0,0-.08,79.63,33,33,0,0,0,61.51,12,32.85,32.85,0,0,0,16.69,4.54A33.62,33.62,0,0,0,140,88.3a34.5,34.5,0,0,0-.57-6.2A39.5,39.5,0,0,0,147.88,57.54Z"/><g class="cls-2"><path class="cls-3" d="M46.28,14.41h-18V5.18h18Zm-17.2-.75H45.53V5.93H29.08Z"/><path class="cls-3" d="M59.19,23.39h-18V14.16h18ZM42,22.64H58.44V14.91H42Z"/></g><g class="cls-2"><path class="cls-3" d="M55.91,110.5H38v-8h18Zm-17.2-.75H55.16v-6.51H38.71Z"/><path class="cls-3" d="M68.82,118.19h-18v-8h18Zm-17.2-.75H68.07v-6.51H51.61Z"/></g><g class="cls-2"><path class="cls-3" d="M147.8,58.32h-18V49.85h18Zm-17.2-.75h16.45v-7H130.6Z"/><path class="cls-3" d="M134.9,66.5h-18V58h18Zm-17.2-.75h16.45v-7H117.7Z"/></g><polygon class="cls-4" points="83.96 22.93 81.45 21.75 78.68 21.91 79.02 19.15 78.02 16.56 80.75 16.04 82.9 14.29 84.24 16.71 86.57 18.22 84.68 20.25 83.96 22.93"/><polygon class="cls-4" points="139.67 94.51 137.16 93.34 134.39 93.49 134.73 90.73 133.73 88.14 136.46 87.62 138.61 85.87 139.95 88.3 142.28 89.8 140.39 91.83 139.67 94.51"/><polygon class="cls-4" points="16.65 39.1 14.14 37.93 11.37 38.08 11.71 35.32 10.71 32.74 13.43 32.21 15.59 30.46 16.93 32.89 19.26 34.39 17.37 36.42 16.65 39.1"/><polygon class="cls-4" points="92.52 122.83 90 121.65 87.23 121.8 87.57 119.05 86.58 116.46 89.3 115.93 91.45 114.18 92.8 116.61 95.13 118.12 93.23 120.15 92.52 122.83"/><polygon class="cls-4" points="15 95.51 12.48 94.33 9.71 94.48 10.06 91.73 9.06 89.14 11.78 88.62 13.93 86.87 15.28 89.29 17.61 90.8 15.71 92.83 15 95.51"/><path class="cls-5" d="M70.42,80.37"/><rect class="cls-6" x="36.01" y="9.94" width="75.26" height="106.25" rx="13.91" ry="13.91" transform="matrix(0.27, -0.96, 0.96, 0.27, -6.85, 117.1)"/><path class="cls-7" d="M120.36,37.45,47.14,17.07c-7.17-2-12.94-.3-14.87,3.13l-1.09,2.73c1-3.73,7.74-4.13,14.92-2.13l73.21,20.38c7.17,2,12.15,6.64,11.11,10.36l1-3.73C132.5,44.08,127.53,39.44,120.36,37.45Z"/><path class="cls-8" d="M16.67,80.06l-1.26-2.72,40-18.5L56,60.22c.06.14,6.31,13.67,16.39,15.52,5.16.95,10.57-1.35,16.08-6.83L90.62,71c-6.26,6.22-12.56,8.8-18.75,7.65C62.2,76.91,56,66.58,54,62.82Z"/><path class="cls-9" d="M105.13,111.07a14.88,14.88,0,0,1-4-.55l-75.55-21A14.93,14.93,0,0,1,15.21,71.13l12.72-45.7A14.93,14.93,0,0,1,46.3,15.06l75.56,21a14.93,14.93,0,0,1,10.37,18.37l-12.72,45.7A14.94,14.94,0,0,1,105.13,111.07ZM42.3,16.51A12.94,12.94,0,0,0,29.86,26L17.14,71.66a12.93,12.93,0,0,0,9,15.9l75.55,21a12.93,12.93,0,0,0,15.9-9l12.72-45.7a12.93,12.93,0,0,0-9-15.9L45.76,17A12.89,12.89,0,0,0,42.3,16.51Z"/><rect class="cls-9" x="14.47" y="66.92" width="42.95" height="2" transform="translate(-25.05 21.18) rotate(-24.65)"/><rect class="cls-8" x="101.26" y="66.47" width="3" height="41.9" transform="translate(-31.88 78.83) rotate(-36.74)"/><rect class="cls-9" x="102.73" y="65.08" width="2" height="42.9" transform="translate(-31.04 77.31) rotate(-35.92)"/><path class="cls-9" d="M73.36,77a13.09,13.09,0,0,1-3.47-.45,14.68,14.68,0,0,1-8.12-6.2L30.35,22.66,32,21.56,63.43,69.24a11.77,11.77,0,0,0,15.76,4.39l52-24.84.86,1.8-52,24.84A15.49,15.49,0,0,1,73.36,77Z"/></g></g></svg>