<svg xmlns="http://www.w3.org/2000/svg" viewBox="0 0 162.26 147.95"><defs><style>.cls-1{fill:#ddebff;}.cls-1,.cls-4{opacity:0.5;}.cls-2,.cls-8{opacity:0.1;}.cls-3{fill:#463e3b;}.cls-4{fill:#8bd2ff;}.cls-5{fill:#6262a0;}.cls-6{fill:none;stroke:#fff;stroke-miterlimit:10;stroke-width:3px;}.cls-7{fill:#ff5750;}.cls-8,.cls-9{fill:#fff;}.cls-10{fill:#60609a;}</style></defs><title>Asset 350</title><g id="Layer_2" data-name="Layer 2"><g id="Layer_1-2" data-name="Layer 1"><path class="cls-1" d="M155.88,63.34c0-20.48-13-37.62-30.56-42.11C114.72,8.21,99.26,0,82,0,61.77,0,43.94,11.38,33.6,28.59,16.69,34.63,4.47,52,4.47,72.44s12.18,37.75,29,43.81c2.37,17.93,16.5,31.7,33.6,31.7,12.55,0,23.51-7.44,29.38-18.49a31.86,31.86,0,0,0,17.09,5c18.87,0,34.17-16.69,34.17-37.27a40.75,40.75,0,0,0-.58-6.82A45.58,45.58,0,0,0,155.88,63.34Z"/><g class="cls-2"><path class="cls-3" d="M18.49,76.74H0v-9.5H18.49ZM.75,76h17V68H.75Z"/><path class="cls-3" d="M31.79,86H13.3v-9.5H31.79Zm-17.74-.75H31v-8h-17Z"/></g><g class="cls-2"><path class="cls-3" d="M58.82,137.25H40.33V129H58.82Zm-17.74-.75h17v-6.73h-17Z"/><path class="cls-3" d="M72.13,145.17H53.64v-8.23H72.13Zm-17.74-.75h17v-6.73h-17Z"/></g><g class="cls-2"><path class="cls-3" d="M140.75,63.67H122.26V55h18.49ZM123,62.92h17V55.71H123Z"/><path class="cls-3" d="M154,72.1H135.56V63.39H154Zm-17.74-.75h17V64.14h-17Z"/></g><g class="cls-2"><path class="cls-3" d="M112.74,18.28H94.25V9.57h18.49ZM95,17.53h17V10.32H95Z"/><path class="cls-3" d="M99.43,26.71H80.95V18H99.43ZM81.7,26h17V18.75h-17Z"/></g><polygon class="cls-4" points="129.31 16.92 126.72 15.71 123.86 15.87 124.21 13.03 123.18 10.36 125.99 9.82 128.21 8.01 129.59 10.52 132 12.07 130.04 14.16 129.31 16.92"/><polygon class="cls-4" points="159.57 99.58 156.98 98.37 154.12 98.53 154.47 95.69 153.44 93.02 156.25 92.48 158.47 90.67 159.85 93.18 162.26 94.73 160.3 96.82 159.57 99.58"/><polygon class="cls-4" points="26.25 30.08 23.66 28.87 20.8 29.02 21.15 26.18 20.12 23.51 22.93 22.97 25.15 21.17 26.54 23.67 28.94 25.22 26.98 27.31 26.25 30.08"/><polygon class="cls-4" points="97.21 146.74 94.62 145.53 91.76 145.69 92.11 142.85 91.08 140.18 93.89 139.64 96.11 137.83 97.5 140.34 99.9 141.89 97.94 143.98 97.21 146.74"/><polygon class="cls-4" points="21.73 114.25 19.14 113.04 16.28 113.19 16.63 110.35 15.6 107.68 18.41 107.14 20.63 105.34 22.01 107.84 24.41 109.39 22.46 111.48 21.73 114.25"/><path class="cls-5" d="M104.45,135.42a51.33,51.33,0,0,1-5,2.56L78.62,97.23,57.8,138a49.7,49.7,0,0,1-5-2.57L76.13,89.79l2.49,1.27,2.5-1.27Z"/><path class="cls-6" d="M80.63,73.54"/><circle class="cls-7" cx="79.7" cy="66.19" r="49.89"/><path class="cls-8" d="M79.8,24.9A49.88,49.88,0,0,1,129.53,71c.09-1.24.15-2.48.15-3.75a49.89,49.89,0,1,0-99.77,0c0,1.26.06,2.51.15,3.75A49.88,49.88,0,0,1,79.8,24.9Z"/><circle class="cls-9" cx="79.7" cy="65.63" r="39.04"/><circle class="cls-7" cx="79.7" cy="65.63" r="29.55"/><circle class="cls-9" cx="79.7" cy="65.63" r="18.21"/><circle class="cls-7" cx="79.7" cy="65.63" r="8.07"/><path class="cls-5" d="M82.17,70.35l20.7-20.7c4.56-4.56-2.51-11.63-7.07-7.07L75.1,63.28c-4.56,4.56,2.51,11.63,7.07,7.07Z"/><path class="cls-5" d="M94.14,34.1V46.52a5.07,5.07,0,0,0,5,5h10.94c6.43,0,6.45-10,0-10H99.14l5,5V34.1c0-6.43-10-6.45-10,0Z"/><path class="cls-10" d="M79.7,117.35a50.89,50.89,0,1,1,50.89-50.89A50.94,50.94,0,0,1,79.7,117.35Zm0-99.77a48.89,48.89,0,1,0,48.89,48.89A48.94,48.94,0,0,0,79.7,17.57Z"/></g></g></svg>