<svg xmlns="http://www.w3.org/2000/svg" viewBox="0 0 164.95 135.72"><defs><style>.cls-1{fill:#ddebff;}.cls-1,.cls-4{opacity:0.5;}.cls-2{opacity:0.1;}.cls-3{fill:#463e3b;}.cls-4{fill:#8bd2ff;}.cls-14,.cls-5{fill:#fff;}.cls-6{fill:#e6f4ff;}.cls-7{fill:none;stroke:#fff;stroke-miterlimit:10;stroke-width:3px;}.cls-8{fill:#ceeaff;}.cls-9{fill:#ffb82a;}.cls-10{fill:#6262a0;}.cls-10,.cls-14{opacity:0.15;}.cls-11{fill:#60609a;}.cls-12{fill:#25c83a;}.cls-13{fill:#ff5750;}.cls-15{fill:#8686ba;}</style></defs><title>Asset 300</title><g id="Layer_2" data-name="Layer 2"><g id="Layer_1-2" data-name="Layer 1"><path class="cls-1" d="M158.76,58.86A39.21,39.21,0,0,0,128.92,20.6a56,56,0,0,0-89.58,6.69,42.1,42.1,0,0,0-.08,79.63,33,33,0,0,0,61.51,12,32.85,32.85,0,0,0,16.69,4.54,33.62,33.62,0,0,0,33.38-33.86,34.5,34.5,0,0,0-.57-6.2A39.5,39.5,0,0,0,158.76,58.86Z"/><g class="cls-2"><path class="cls-3" d="M47.47,11.31h-18V2.08h18Zm-17.2-.75H46.72V2.83H30.27Z"/><path class="cls-3" d="M60.38,20.3h-18V11.06h18Zm-17.2-.75H59.63V11.81H43.17Z"/></g><g class="cls-2"><path class="cls-3" d="M64.64,125.35h-18v-8h18Zm-17.2-.75H63.89v-6.51H47.44Z"/><path class="cls-3" d="M77.54,133h-18v-8h18Zm-17.2-.75H76.79v-6.51H60.34Z"/></g><g class="cls-2"><path class="cls-3" d="M158.68,59.63h-18V51.16h18Zm-17.2-.75h16.45v-7H141.48Z"/><path class="cls-3" d="M145.78,67.81h-18V59.34h18Zm-17.2-.75H145v-7H128.58Z"/></g><polygon class="cls-4" points="132.99 8.64 130.48 7.47 127.71 7.62 128.05 4.87 127.05 2.28 129.78 1.75 131.93 0 133.27 2.43 135.6 3.94 133.71 5.96 132.99 8.64"/><polygon class="cls-4" points="162.34 88.81 159.83 87.64 157.06 87.79 157.4 85.04 156.4 82.45 159.13 81.92 161.28 80.17 162.62 82.6 164.95 84.11 163.06 86.13 162.34 88.81"/><polygon class="cls-4" points="13.1 15.73 10.59 14.55 7.82 14.7 8.16 11.95 7.16 9.36 9.88 8.83 12.04 7.08 13.38 9.51 15.71 11.02 13.81 13.05 13.1 15.73"/><polygon class="cls-4" points="101.86 134.55 99.35 133.38 96.58 133.53 96.92 130.77 95.92 128.19 98.64 127.66 100.8 125.91 102.14 128.34 104.47 129.84 102.58 131.87 101.86 134.55"/><polygon class="cls-4" points="5.94 105.92 3.43 104.75 0.66 104.89 1 102.14 0 99.55 2.72 99.03 4.88 97.28 6.22 99.7 8.55 101.21 6.66 103.24 5.94 105.92"/><path class="cls-5" d="M133.47,37.4l.06,4a.63.63,0,0,0,1.25,0l-.06-4a.63.63,0,0,0-1.25,0Z"/><path class="cls-5" d="M130.87,30.57h3.28l-.62-.62v3a.63.63,0,0,0,1.25,0v-3a.63.63,0,0,0-.62-.62h-3.28a.63.63,0,0,0,0,1.25Z"/><rect class="cls-6" x="23.34" y="19.93" width="116.96" height="95.54"/><path class="cls-5" d="M23,20.75v1.6H140.3V20.65a1.55,1.55,0,0,0-1.55-1.55H24.68A1.64,1.64,0,0,0,23,20.75Z"/><path class="cls-7" d="M81.3,81.68"/><rect class="cls-8" x="23.01" y="98.66" width="117.29" height="16.82"/><rect class="cls-5" x="28.09" y="44.32" width="103.79" height="63.13"/><polygon class="cls-9" points="28.09 44.23 58.1 44.23 54.13 38.26 32.07 38.26 28.09 44.23"/><polygon class="cls-10" points="58.09 44.24 88.11 44.24 84.13 38.27 62.07 38.27 58.09 44.24"/><path class="cls-11" d="M137,117.15H25.52a4,4,0,0,1-3.95-3.95V21.86a4,4,0,0,1,4-3.95H137a4,4,0,0,1,4,3.95V113.2A4,4,0,0,1,137,117.15ZM25.52,19.91a2,2,0,0,0-2,1.95V113.2a2,2,0,0,0,1.95,1.95H137A2,2,0,0,0,139,113.2V21.86a2,2,0,0,0-2-1.95Z"/><circle class="cls-5" cx="126.39" cy="32.45" r="4.58"/><circle class="cls-5" cx="111.52" cy="32.45" r="4.58"/><circle class="cls-5" cx="96.64" cy="32.45" r="4.58"/><circle class="cls-12" cx="49.16" cy="31.16" r="2.73"/><circle class="cls-9" cx="40.3" cy="31.16" r="2.73"/><circle class="cls-13" cx="31.45" cy="31.16" r="2.73"/><path class="cls-14" d="M49.48,30.84a2.72,2.72,0,0,1,2.29,1.26,2.7,2.7,0,0,0,.12-.75,2.73,2.73,0,1,0-5,1.47A2.72,2.72,0,0,1,49.48,30.84Z"/><path class="cls-14" d="M40.71,30.84A2.72,2.72,0,0,1,43,32.09a2.7,2.7,0,0,0,.12-.75,2.73,2.73,0,1,0-5,1.47A2.72,2.72,0,0,1,40.71,30.84Z"/><path class="cls-14" d="M31.83,30.84a2.72,2.72,0,0,1,2.29,1.26,2.7,2.7,0,0,0,.12-.75,2.73,2.73,0,1,0-5,1.47A2.72,2.72,0,0,1,31.83,30.84Z"/><path class="cls-15" d="M76,69.76c-9.78,9.78-9.75,14.23-7,17s7.22,2.81,17-7,21.2-25.69,18.43-28.45S85.83,60,76,69.76Z"/><path class="cls-8" d="M50.29,98.36c3.2,3.2,15.73,4.1,21.8-2a9.9,9.9,0,0,0,1.64-2.19c-9.5-.28-14.52-3.45-17-5.88C55.64,91.51,54.59,95.51,50.29,98.36Z"/><path class="cls-15" d="M72.85,83c-3.49-3.49-9.92-2.73-13.41.76a11.33,11.33,0,0,0-2.71,4.58c2.48,2.43,7.34,9.94,17,5.88C75.72,90.63,75.7,85.83,72.85,83Z"/><path class="cls-8" d="M56.73,88.32s5.76-1.09,8.5,2.95,8.5,2.93,8.5,2.93l-7.45,4.12-7.46-5.43Z"/></g></g></svg>