<svg xmlns="http://www.w3.org/2000/svg" viewBox="0 0 153.88 143.44"><defs><style>.cls-1{fill:#ddebff;}.cls-1,.cls-13,.cls-4,.cls-5,.cls-8{opacity:0.5;}.cls-2{opacity:0.1;}.cls-3{fill:#463e3b;}.cls-4{fill:#8bd2ff;}.cls-5{fill:#ceddef;}.cls-6{fill:#e6f4ff;}.cls-13,.cls-7{fill:#94c5e6;}.cls-7{opacity:0.2;}.cls-12,.cls-8{fill:#fff;}.cls-9{fill:#c0e6ff;}.cls-10{fill:#60609a;}.cls-11{opacity:0.35;}</style></defs><title>Asset 220</title><g id="Layer_2" data-name="Layer 2"><g id="Layer_1-2" data-name="Layer 1"><path class="cls-1" d="M152.62,62.68a40.12,40.12,0,0,0-30.8-39.07,58.19,58.19,0,0,0-92.46,6.83,42.85,42.85,0,0,0-.08,81.31A34.17,34.17,0,0,0,89,129.27a38.52,38.52,0,0,0,49.06-35.67A40.07,40.07,0,0,0,152.62,62.68Z"/><g class="cls-2"><path class="cls-3" d="M50.75,130.33H31.66v-9.79H50.75Zm-18.34-.75H50v-8.29H32.41Z"/><path class="cls-3" d="M64.5,139.91H45.41v-9.79H64.5Zm-18.34-.75H63.75v-8.29H46.16Z"/></g><g class="cls-2"><path class="cls-3" d="M131.62,57.54H112.53v-9h19.09Zm-18.34-.75h17.59V49.3H113.28Z"/><path class="cls-3" d="M145.38,66.25H126.29v-9h19.09ZM127,65.5h17.59V58H127Z"/></g><g class="cls-2"><path class="cls-3" d="M91.19,17H72.1V8H91.19Zm-18.34-.75H90.44V8.77H72.85Z"/><path class="cls-3" d="M77.43,25.71H58.34v-9H77.43ZM59.09,25H76.68V17.48H59.09Z"/></g><polygon class="cls-4" points="119.81 9.21 117.13 7.96 114.18 8.12 114.54 5.19 113.48 2.43 116.38 1.86 118.68 0 120.11 2.59 122.59 4.2 120.57 6.36 119.81 9.21"/><polygon class="cls-4" points="151.1 94.68 148.42 93.43 145.47 93.59 145.83 90.65 144.76 87.89 147.67 87.33 149.96 85.47 151.4 88.06 153.88 89.66 151.86 91.82 151.1 94.68"/><polygon class="cls-4" points="35.48 19.13 32.8 17.88 29.84 18.04 30.2 15.1 29.14 12.34 32.05 11.78 34.34 9.92 35.77 12.51 38.25 14.11 36.24 16.27 35.48 19.13"/><polygon class="cls-4" points="86.62 143.44 83.94 142.19 80.99 142.35 81.35 139.41 80.29 136.65 83.19 136.09 85.49 134.23 86.92 136.82 89.4 138.42 87.38 140.58 86.62 143.44"/><polygon class="cls-4" points="19.08 122.66 16.4 121.41 13.45 121.57 13.81 118.64 12.75 115.88 15.65 115.31 17.95 113.45 19.38 116.04 21.86 117.64 19.84 119.81 19.08 122.66"/><path class="cls-1" d="M99.26,109.67H54l-3.3,12.18A3.29,3.29,0,0,0,53.89,126H99.38a3.29,3.29,0,0,0,3.18-4.15Z"/><polygon class="cls-5" points="99.34 112.8 52.52 112.8 53.3 109.88 98.56 109.88 99.34 112.8"/><path class="cls-6" d="M136.77,91.66V107.4a2.32,2.32,0,0,1-2.32,2.32H98.54v-.05H53.28v.05h-36a2.1,2.1,0,0,1-2.1-2.1v-16Z"/><rect class="cls-7" x="15.17" y="91.49" width="121.58" height="2.27"/><path class="cls-8" d="M15.17,107.72v.08A2.19,2.19,0,0,0,17.36,110H134.59a2.16,2.16,0,0,0,2.16-2.16v-.11Z"/><path class="cls-9" d="M18.39,24.43H133.87A3.13,3.13,0,0,1,137,27.56V91.66a0,0,0,0,1,0,0H15.26a0,0,0,0,1,0,0V27.56A3.13,3.13,0,0,1,18.39,24.43Z"/><path class="cls-10" d="M98.71,127H53.21a4.29,4.29,0,0,1-4.14-5.41l3.5-12.92H99.35l3.5,12.92A4.29,4.29,0,0,1,98.71,127ZM54.1,110.67,51,122.11A2.29,2.29,0,0,0,53.21,125H98.71a2.29,2.29,0,0,0,2.21-2.89l-3.1-11.44Z"/><polygon class="cls-10" points="137.83 105.47 135.83 105.47 135.83 92.67 16.09 92.67 16.09 105.47 14.09 105.47 14.09 90.67 137.83 90.67 137.83 105.47"/><circle class="cls-10" cx="75.96" cy="100.69" r="2.64"/><g class="cls-11"><polygon class="cls-12" points="137.65 34.82 137.65 49.08 15.63 74.12 15.63 59.86 137.65 34.82"/><polygon class="cls-12" points="137.65 53.44 137.65 60.65 15.63 85.69 15.63 78.48 137.65 53.44"/></g><path class="cls-13" d="M15,27.3v1.13H137V26.89a2.79,2.79,0,0,0-2.79-2.79h-116A3.21,3.21,0,0,0,15,27.3Z"/><path class="cls-10" d="M133.7,110.72H18.22a4.13,4.13,0,0,1-4.13-4.13v-79a4.13,4.13,0,0,1,4.13-4.13H133.7a4.13,4.13,0,0,1,4.13,4.13v79A4.13,4.13,0,0,1,133.7,110.72ZM18.22,25.43a2.13,2.13,0,0,0-2.13,2.13v79a2.13,2.13,0,0,0,2.13,2.13H133.7a2.13,2.13,0,0,0,2.13-2.13v-79a2.13,2.13,0,0,0-2.13-2.13Z"/></g></g></svg>