<svg xmlns="http://www.w3.org/2000/svg" viewBox="0 0 165.15 140.65"><defs><style>.cls-1{fill:#8bd2ff;}.cls-1,.cls-2{opacity:0.5;}.cls-2{fill:#ddebff;}.cls-3{opacity:0.1;}.cls-4{fill:#463e3b;}.cls-5{fill:none;stroke:#fff;stroke-miterlimit:10;stroke-width:3px;}.cls-6{fill:#fff;}.cls-7{fill:#c3c3ea;}.cls-8{fill:#e6f4ff;}.cls-9{fill:#ceeaff;}.cls-10{fill:#60609a;}</style></defs><title>Asset 370</title><g id="Layer_2" data-name="Layer 2"><g id="Layer_1-2" data-name="Layer 1"><polygon class="cls-1" points="17.48 108.2 14.96 107.02 12.19 107.17 12.53 104.42 11.53 101.83 14.26 101.3 16.41 99.55 17.75 101.98 20.09 103.49 18.19 105.52 17.48 108.2"/><path class="cls-2" d="M150.39,70.44c0-16.52-12.33-30.36-28.89-34A56.4,56.4,0,0,0,80.59,19.32c-19.17,0-36,9.18-45.8,23.07-16,4.87-27.54,18.87-27.54,35.38s11.51,30.46,27.46,35.35c2.24,14.47,15.6,25.58,31.76,25.58a32.57,32.57,0,0,0,27.78-14.92,34,34,0,0,0,16.15,4c17.84,0,32.31-13.47,32.31-30.08a28.2,28.2,0,0,0-.55-5.5A33.31,33.31,0,0,0,150.39,70.44Z"/><g class="cls-3"><path class="cls-4" d="M122.08,41.66h-18V32.43h18Zm-17.22-.75h16.47V33.18H104.87Z"/><path class="cls-4" d="M135,50.65H117V41.41h18Zm-17.21-.75h16.46V42.16H117.78Z"/></g><g class="cls-3"><path class="cls-4" d="M64.66,133h-18v-8h18Zm-17.21-.75H63.91v-6.51H47.44Z"/><path class="cls-4" d="M77.57,140.65h-18v-8h18Zm-17.22-.75H76.82v-6.51H60.36Z"/></g><g class="cls-3"><path class="cls-4" d="M18,79.77H0V71.3H18ZM.75,79H17.22V72H.75Z"/><path class="cls-4" d="M30.88,88h-18V79.48h18Zm-17.21-.75H30.13v-7H13.66Z"/></g><polygon class="cls-1" points="134.19 37.13 131.67 35.95 128.9 36.1 129.24 33.34 128.24 30.75 130.97 30.23 133.12 28.48 134.47 30.91 136.8 32.41 134.9 34.44 134.19 37.13"/><polygon class="cls-1" points="162.54 103.87 160.03 102.7 157.26 102.85 157.6 100.09 156.6 97.5 159.32 96.97 161.48 95.22 162.82 97.65 165.15 99.16 163.26 101.19 162.54 103.87"/><polygon class="cls-1" points="38.53 48.19 36.02 47.01 33.25 47.16 33.59 44.41 32.59 41.81 35.31 41.29 37.47 39.54 38.81 41.97 41.14 43.48 39.25 45.5 38.53 48.19"/><polygon class="cls-1" points="99.3 129.64 96.79 128.47 94.02 128.62 94.36 125.86 93.36 123.27 96.08 122.75 98.24 121 99.58 123.42 101.91 124.93 100.02 126.96 99.3 129.64"/><path class="cls-5" d="M85.16,86.69"/><path class="cls-6" d="M111.61,1.11l-.14,35.66a9.69,9.69,0,0,1-9.71,9.64l-7.89,0a9.69,9.69,0,0,1-9.64-9.71,5.94,5.94,0,0,0-5.91-6l-11.89,0a5.94,5.94,0,0,0-6,5.91l-.05,13-3.75,0,.05-13a9.69,9.69,0,0,1,9.71-9.64l11.89,0A9.69,9.69,0,0,1,88,36.68a5.94,5.94,0,0,0,5.91,6l7.89,0a5.94,5.94,0,0,0,6-5.91L107.87,0C109.13.34,110.38.71,111.61,1.11Z"/><polygon class="cls-7" points="62.37 54.18 54.72 54.15 56.01 49.28 61.11 49.3 62.37 54.18"/><rect class="cls-8" x="28.21" y="54.23" width="118.74" height="58.41" rx="2.02" ry="2.02" transform="translate(0.33 -0.35) rotate(0.23)"/><path class="cls-9" d="M146.61,107a2.9,2.9,0,0,1-2.91,2.88l-112.95-.45a2.89,2.89,0,0,1-2.87-2.78v3.21c0,1.6-.71,2.9.89,2.91l116.28.45c1.6,0,1.57-1.29,1.58-2.88l.21-52.62s0-.09,0-.13Z"/><path class="cls-6" d="M147.06,57.94V56.48a1.35,1.35,0,0,0-1.34-1.35l-116-.46A1.35,1.35,0,0,0,28.32,56v1.94Z"/><path class="cls-10" d="M144.46,114.34h0l-114.7-.46a3,3,0,0,1-3-3L27,56.48a3,3,0,0,1,3-3h0l114.7.46a3,3,0,0,1,3,3l-.22,54.37A3,3,0,0,1,144.46,114.34Zm0-2h0a1,1,0,0,0,1-1L145.7,57a1,1,0,0,0-1-1L30,55.48h0a1,1,0,0,0-1,1l-.22,54.37a1,1,0,0,0,1,1Z"/><g id="_05" data-name="05"><path id="button" class="cls-6" d="M48.13,103.92H45.7a2.43,2.43,0,0,1-2.42-2.42v-1.21a2.43,2.43,0,0,1,2.42-2.42h2.42a2.43,2.43,0,0,1,2.42,2.42v1.21A2.43,2.43,0,0,1,48.13,103.92Z"/><path id="button-2" data-name="button" class="cls-6" d="M57.82,103.92H55.4A2.43,2.43,0,0,1,53,101.49v-1.21a2.43,2.43,0,0,1,2.42-2.42h2.42a2.43,2.43,0,0,1,2.42,2.42v1.21A2.43,2.43,0,0,1,57.82,103.92Z"/><path id="button-3" data-name="button" class="cls-6" d="M116,103.92h-2.42a2.43,2.43,0,0,1-2.42-2.42v-1.21a2.43,2.43,0,0,1,2.42-2.42H116a2.43,2.43,0,0,1,2.42,2.42v1.21A2.43,2.43,0,0,1,116,103.92Z"/><path id="button-4" data-name="button" class="cls-6" d="M125.65,103.92h-2.42a2.43,2.43,0,0,1-2.42-2.42v-1.21a2.43,2.43,0,0,1,2.42-2.42h2.42a2.43,2.43,0,0,1,2.42,2.42v1.21A2.43,2.43,0,0,1,125.65,103.92Z"/><path id="button-5" data-name="button" class="cls-6" d="M106.27,103.92H65.09a2.43,2.43,0,0,1-2.42-2.42v-1.21a2.43,2.43,0,0,1,2.42-2.42h41.19a2.43,2.43,0,0,1,2.42,2.42v1.21A2.43,2.43,0,0,1,106.27,103.92Z"/></g><g id="_04" data-name="04"><path id="button-6" data-name="button" class="cls-6" d="M67.51,95.44H65.09A2.43,2.43,0,0,1,62.66,93V91.8a2.43,2.43,0,0,1,2.42-2.42h2.42a2.43,2.43,0,0,1,2.42,2.42V93A2.43,2.43,0,0,1,67.51,95.44Z"/><path id="button-7" data-name="button" class="cls-6" d="M77.2,95.44H74.78A2.43,2.43,0,0,1,72.35,93V91.8a2.43,2.43,0,0,1,2.42-2.42H77.2a2.43,2.43,0,0,1,2.42,2.42V93A2.43,2.43,0,0,1,77.2,95.44Z"/><path id="button-8" data-name="button" class="cls-6" d="M86.89,95.44H84.47A2.43,2.43,0,0,1,82,93V91.8a2.43,2.43,0,0,1,2.42-2.42h2.42a2.43,2.43,0,0,1,2.42,2.42V93A2.43,2.43,0,0,1,86.89,95.44Z"/><path id="button-9" data-name="button" class="cls-6" d="M96.58,95.44H94.16A2.43,2.43,0,0,1,91.74,93V91.8a2.43,2.43,0,0,1,2.42-2.42h2.42A2.43,2.43,0,0,1,99,91.8V93A2.43,2.43,0,0,1,96.58,95.44Z"/><path id="button-10" data-name="button" class="cls-6" d="M106.27,95.44h-2.42A2.43,2.43,0,0,1,101.43,93V91.8a2.43,2.43,0,0,1,2.42-2.42h2.42a2.43,2.43,0,0,1,2.42,2.42V93A2.43,2.43,0,0,1,106.27,95.44Z"/><path id="button-11" data-name="button" class="cls-6" d="M125.65,95.44H113.54A2.43,2.43,0,0,1,111.12,93V91.8a2.43,2.43,0,0,1,2.42-2.42h12.11a2.43,2.43,0,0,1,2.42,2.42V93A2.43,2.43,0,0,1,125.65,95.44Z"/><path id="button-12" data-name="button" class="cls-6" d="M57.82,95.44H45.7A2.43,2.43,0,0,1,43.28,93V91.8a2.43,2.43,0,0,1,2.42-2.42H57.82a2.43,2.43,0,0,1,2.42,2.42V93A2.43,2.43,0,0,1,57.82,95.44Z"/></g><g id="_03" data-name="03"><path id="button-13" data-name="button" class="cls-6" d="M48.13,87H45.7a2.43,2.43,0,0,1-2.42-2.42V83.32A2.43,2.43,0,0,1,45.7,80.9h2.42a2.43,2.43,0,0,1,2.42,2.42v1.21A2.43,2.43,0,0,1,48.13,87Z"/><path id="button-14" data-name="button" class="cls-6" d="M57.82,87H55.4A2.43,2.43,0,0,1,53,84.53V83.32A2.43,2.43,0,0,1,55.4,80.9h2.42a2.43,2.43,0,0,1,2.42,2.42v1.21A2.43,2.43,0,0,1,57.82,87Z"/><path id="button-15" data-name="button" class="cls-6" d="M67.51,87H65.09a2.43,2.43,0,0,1-2.42-2.42V83.32a2.43,2.43,0,0,1,2.42-2.42h2.42a2.43,2.43,0,0,1,2.42,2.42v1.21A2.43,2.43,0,0,1,67.51,87Z"/><path id="button-16" data-name="button" class="cls-6" d="M77.2,87H74.78a2.43,2.43,0,0,1-2.42-2.42V83.32a2.43,2.43,0,0,1,2.42-2.42H77.2a2.43,2.43,0,0,1,2.42,2.42v1.21A2.43,2.43,0,0,1,77.2,87Z"/><path id="button-17" data-name="button" class="cls-6" d="M86.89,87H84.47A2.43,2.43,0,0,1,82,84.53V83.32a2.43,2.43,0,0,1,2.42-2.42h2.42a2.43,2.43,0,0,1,2.42,2.42v1.21A2.43,2.43,0,0,1,86.89,87Z"/><path id="button-18" data-name="button" class="cls-6" d="M96.58,87H94.16a2.43,2.43,0,0,1-2.42-2.42V83.32a2.43,2.43,0,0,1,2.42-2.42h2.42A2.43,2.43,0,0,1,99,83.32v1.21A2.43,2.43,0,0,1,96.58,87Z"/><path id="button-19" data-name="button" class="cls-6" d="M106.27,87h-2.42a2.43,2.43,0,0,1-2.42-2.42V83.32a2.43,2.43,0,0,1,2.42-2.42h2.42a2.43,2.43,0,0,1,2.42,2.42v1.21A2.43,2.43,0,0,1,106.27,87Z"/><path id="button-20" data-name="button" class="cls-6" d="M116,87h-2.42a2.43,2.43,0,0,1-2.42-2.42V83.32a2.43,2.43,0,0,1,2.42-2.42H116a2.43,2.43,0,0,1,2.42,2.42v1.21A2.43,2.43,0,0,1,116,87Z"/><path id="button-21" data-name="button" class="cls-6" d="M125.65,87h-2.42a2.43,2.43,0,0,1-2.42-2.42V83.32a2.43,2.43,0,0,1,2.42-2.42h2.42a2.43,2.43,0,0,1,2.42,2.42v1.21A2.43,2.43,0,0,1,125.65,87Z"/></g><g id="_02" data-name="02"><path id="button-22" data-name="button" class="cls-6" d="M48.13,78.48H45.7a2.43,2.43,0,0,1-2.42-2.42V74.84a2.43,2.43,0,0,1,2.42-2.42h2.42a2.43,2.43,0,0,1,2.42,2.42v1.21A2.43,2.43,0,0,1,48.13,78.48Z"/><path id="button-23" data-name="button" class="cls-6" d="M57.82,78.48H55.4A2.43,2.43,0,0,1,53,76.05V74.84a2.43,2.43,0,0,1,2.42-2.42h2.42a2.43,2.43,0,0,1,2.42,2.42v1.21A2.43,2.43,0,0,1,57.82,78.48Z"/><path id="button-24" data-name="button" class="cls-6" d="M67.51,78.48H65.09a2.43,2.43,0,0,1-2.42-2.42V74.84a2.43,2.43,0,0,1,2.42-2.42h2.42a2.43,2.43,0,0,1,2.42,2.42v1.21A2.43,2.43,0,0,1,67.51,78.48Z"/><path id="button-25" data-name="button" class="cls-6" d="M77.2,78.48H74.78a2.43,2.43,0,0,1-2.42-2.42V74.84a2.43,2.43,0,0,1,2.42-2.42H77.2a2.43,2.43,0,0,1,2.42,2.42v1.21A2.43,2.43,0,0,1,77.2,78.48Z"/><path id="button-26" data-name="button" class="cls-6" d="M86.89,78.48H84.47A2.43,2.43,0,0,1,82,76.05V74.84a2.43,2.43,0,0,1,2.42-2.42h2.42a2.43,2.43,0,0,1,2.42,2.42v1.21A2.43,2.43,0,0,1,86.89,78.48Z"/><path id="button-27" data-name="button" class="cls-6" d="M96.58,78.48H94.16a2.43,2.43,0,0,1-2.42-2.42V74.84a2.43,2.43,0,0,1,2.42-2.42h2.42A2.43,2.43,0,0,1,99,74.84v1.21A2.43,2.43,0,0,1,96.58,78.48Z"/><path id="button-28" data-name="button" class="cls-6" d="M106.27,78.48h-2.42a2.43,2.43,0,0,1-2.42-2.42V74.84a2.43,2.43,0,0,1,2.42-2.42h2.42a2.43,2.43,0,0,1,2.42,2.42v1.21A2.43,2.43,0,0,1,106.27,78.48Z"/><path id="button-29" data-name="button" class="cls-6" d="M116,78.48h-2.42a2.43,2.43,0,0,1-2.42-2.42V74.84a2.43,2.43,0,0,1,2.42-2.42H116a2.43,2.43,0,0,1,2.42,2.42v1.21A2.43,2.43,0,0,1,116,78.48Z"/><path id="button-30" data-name="button" class="cls-6" d="M125.65,78.48h-2.42a2.43,2.43,0,0,1-2.42-2.42V74.84a2.43,2.43,0,0,1,2.42-2.42h2.42a2.43,2.43,0,0,1,2.42,2.42v1.21A2.43,2.43,0,0,1,125.65,78.48Z"/></g><g id="_01" data-name="01"><path id="button-31" data-name="button" class="cls-6" d="M48.13,70H45.7a2.43,2.43,0,0,1-2.42-2.42V66.36a2.43,2.43,0,0,1,2.42-2.42h2.42a2.43,2.43,0,0,1,2.42,2.42v1.21A2.43,2.43,0,0,1,48.13,70Z"/><path id="button-32" data-name="button" class="cls-6" d="M57.82,70H55.4A2.43,2.43,0,0,1,53,67.57V66.36a2.43,2.43,0,0,1,2.42-2.42h2.42a2.43,2.43,0,0,1,2.42,2.42v1.21A2.43,2.43,0,0,1,57.82,70Z"/><path id="button-33" data-name="button" class="cls-6" d="M67.51,70H65.09a2.43,2.43,0,0,1-2.42-2.42V66.36a2.43,2.43,0,0,1,2.42-2.42h2.42a2.43,2.43,0,0,1,2.42,2.42v1.21A2.43,2.43,0,0,1,67.51,70Z"/><path id="button-34" data-name="button" class="cls-6" d="M77.2,70H74.78a2.43,2.43,0,0,1-2.42-2.42V66.36a2.43,2.43,0,0,1,2.42-2.42H77.2a2.43,2.43,0,0,1,2.42,2.42v1.21A2.43,2.43,0,0,1,77.2,70Z"/><path id="button-35" data-name="button" class="cls-6" d="M86.89,70H84.47A2.43,2.43,0,0,1,82,67.57V66.36a2.43,2.43,0,0,1,2.42-2.42h2.42a2.43,2.43,0,0,1,2.42,2.42v1.21A2.43,2.43,0,0,1,86.89,70Z"/><path id="button-36" data-name="button" class="cls-6" d="M96.58,70H94.16a2.43,2.43,0,0,1-2.42-2.42V66.36a2.43,2.43,0,0,1,2.42-2.42h2.42A2.43,2.43,0,0,1,99,66.36v1.21A2.43,2.43,0,0,1,96.58,70Z"/><path id="button-37" data-name="button" class="cls-6" d="M106.27,70h-2.42a2.43,2.43,0,0,1-2.42-2.42V66.36a2.43,2.43,0,0,1,2.42-2.42h2.42a2.43,2.43,0,0,1,2.42,2.42v1.21A2.43,2.43,0,0,1,106.27,70Z"/><path id="button-38" data-name="button" class="cls-6" d="M125.65,70H113.54a2.43,2.43,0,0,1-2.42-2.42V66.36a2.43,2.43,0,0,1,2.42-2.42h12.11a2.43,2.43,0,0,1,2.42,2.42v1.21A2.43,2.43,0,0,1,125.65,70Z"/></g></g></g></svg>