<svg xmlns="http://www.w3.org/2000/svg" viewBox="0 0 160.48 163.54"><defs><style>.cls-1{fill:#ddebff;}.cls-1,.cls-4{opacity:0.5;}.cls-2{opacity:0.1;}.cls-3{fill:#463e3b;}.cls-4{fill:#8bd2ff;}.cls-5{fill:none;stroke:#fff;stroke-miterlimit:10;stroke-width:3px;}.cls-6{fill:#fff;}.cls-7{fill:#e6f4ff;}.cls-8{opacity:0.15;}.cls-9{fill:#6262a0;}.cls-10{fill:#ceeaff;}.cls-11,.cls-13{opacity:0.35;}.cls-12,.cls-13{fill:#ffb82a;}.cls-14{fill:#070707;opacity:0.02;}.cls-15{fill:#60609a;}</style></defs><title>Asset 310</title><g id="Layer_2" data-name="Layer 2"><g id="Layer_1-2" data-name="Layer 1"><path class="cls-1" d="M157.57,70c0-22.63-13.57-41.58-31.8-46.55C114.74,9.08,98.65,0,80.73,0,59.63,0,41.07,12.58,30.32,31.61,12.72,38.28,0,57.45,0,80.07s12.68,41.72,30.23,48.43c2.47,19.81,17.18,35,35,35,13.06,0,24.47-8.22,30.58-20.43a31.77,31.77,0,0,0,17.78,5.53c19.64,0,35.56-18.45,35.56-41.2a47.77,47.77,0,0,0-.6-7.54A52.52,52.52,0,0,0,157.57,70Z"/><g class="cls-2"><path class="cls-3" d="M37,22.32H15.38V10.65H37Zm-19.61-2H35V12.65H17.38Z"/><path class="cls-3" d="M51.69,32.56H30.08V20.89H51.69Zm-19.61-2H49.69V22.89H32.08Z"/></g><g class="cls-2"><path class="cls-3" d="M63.88,148.3H42.27V138H63.88Zm-19.61-2H61.88V140H44.27Z"/><path class="cls-3" d="M78.58,157.05H57V146.78H78.58Zm-19.61-2H76.58v-6.27H59Z"/></g><g class="cls-2"><path class="cls-3" d="M145.77,81H124.17V70.16h21.61Zm-19.61-2h17.61v-6.8H126.17Z"/><path class="cls-3" d="M160.48,90.28H138.87V79.48h21.61Zm-19.61-2h17.61v-6.8H140.87Z"/></g><polygon class="cls-4" points="107.18 17.72 104.31 16.39 101.16 16.56 101.55 13.42 100.41 10.47 103.51 9.87 105.97 7.87 107.5 10.64 110.15 12.36 107.99 14.67 107.18 17.72"/><polygon class="cls-4" points="14.81 37.15 11.94 35.81 8.79 35.98 9.17 32.84 8.04 29.89 11.14 29.29 13.59 27.3 15.13 30.06 17.78 31.78 15.62 34.09 14.81 37.15"/><polygon class="cls-4" points="95.08 150.59 92.22 149.25 89.06 149.42 89.45 146.28 88.31 143.33 91.41 142.73 93.87 140.74 95.4 143.5 98.05 145.22 95.89 147.53 95.08 150.59"/><polygon class="cls-4" points="6.77 110.8 3.91 109.47 0.75 109.64 1.14 106.5 0 103.55 3.1 102.95 5.56 100.95 7.09 103.72 9.74 105.44 7.58 107.75 6.77 110.8"/><path class="cls-5" d="M85.26,92.42"/><path class="cls-6" d="M31.89,25.48a12.33,12.33,0,0,0-12.46,12.2v85.39a12.33,12.33,0,0,0,12.46,12.2h87.2a12.33,12.33,0,0,0,12.46-12.2V37.68a12.33,12.33,0,0,0-12.46-12.2H31.89Z"/><path class="cls-7" d="M32.37,25.48A12.32,12.32,0,0,0,20,37.68V56H131.55V37.68a12.32,12.32,0,0,0-12.4-12.2H32.37Z"/><path class="cls-6" d="M118.5,25.78H32.18A12.28,12.28,0,0,0,19.85,38V40.7A12.28,12.28,0,0,1,32.18,28.5H118.5a12.28,12.28,0,0,1,12.33,12.2V38A12.28,12.28,0,0,0,118.5,25.78Z"/><g class="cls-8"><path class="cls-9" d="M66.88,44.19a6.07,6.07,0,1,1-6.07-6.07A6.07,6.07,0,0,1,66.88,44.19Z"/><path class="cls-9" d="M115.44,44.19a6.07,6.07,0,1,1-6.07-6.07A6.07,6.07,0,0,1,115.44,44.19Z"/><path class="cls-9" d="M83.06,44.19A6.07,6.07,0,1,1,77,38.12,6.07,6.07,0,0,1,83.06,44.19Z"/><path class="cls-9" d="M99.25,44.19a6.07,6.07,0,1,1-6.07-6.07A6.07,6.07,0,0,1,99.25,44.19Z"/></g><rect class="cls-10" x="18.34" y="55.98" width="113.75" height="6.1"/><g class="cls-11"><rect class="cls-12" x="67.16" y="70.87" width="12.2" height="12.2"/><rect class="cls-12" x="85.45" y="70.87" width="12.2" height="12.2"/><rect class="cls-12" x="103.75" y="70.87" width="12.2" height="12.2"/><rect class="cls-12" x="30.56" y="89.17" width="12.2" height="12.2"/><rect class="cls-12" x="48.86" y="89.17" width="12.2" height="12.2"/><rect class="cls-12" x="67.16" y="89.17" width="12.2" height="12.2"/><rect class="cls-12" x="85.45" y="89.17" width="12.2" height="12.2"/><rect class="cls-12" x="103.75" y="89.17" width="12.2" height="12.2"/></g><rect class="cls-13" x="30.56" y="107.47" width="12.2" height="12.2"/><rect class="cls-13" x="48.86" y="107.47" width="12.2" height="12.2"/><rect class="cls-12" x="67.16" y="107.47" width="12.2" height="12.2"/><rect class="cls-13" x="85.45" y="107.47" width="12.2" height="12.2"/><path class="cls-14" d="M128.26,130c0,2.67-1.86,4.83-4.16,4.83H26.47A4.66,4.66,0,0,1,22.15,130H128.26Z"/><path class="cls-15" d="M118.61,136.67H31.83a13.31,13.31,0,0,1-13.4-13.2V38.09a13.31,13.31,0,0,1,13.4-13.2h86.78A13.31,13.31,0,0,1,132,38.09v85.39A13.31,13.31,0,0,1,118.61,136.67ZM31.83,26.89a11.31,11.31,0,0,0-11.4,11.2v85.39a11.31,11.31,0,0,0,11.4,11.2h86.78a11.31,11.31,0,0,0,11.4-11.2V38.09a11.31,11.31,0,0,0-11.4-11.2Z"/></g></g></svg>