<svg xmlns="http://www.w3.org/2000/svg" viewBox="0 0 170 152.31"><defs><style>.cls-1{fill:#ddebff;}.cls-1,.cls-4{opacity:0.5;}.cls-2{opacity:0.1;}.cls-3{fill:#463e3b;}.cls-4{fill:#8bd2ff;}.cls-5{fill:#e6f4ff;}.cls-13,.cls-6{fill:#fff;}.cls-7{fill:#ceeaff;}.cls-8{fill:none;stroke:#fff;stroke-miterlimit:10;stroke-width:3px;}.cls-9{fill:#ffb82a;}.cls-10{fill:#60609a;}.cls-11{fill:#25c83a;}.cls-12{fill:#ff5750;}.cls-13{opacity:0.15;}</style></defs><title>Asset 320</title><g id="Layer_2" data-name="Layer 2"><g id="Layer_1-2" data-name="Layer 1"><path class="cls-1" d="M170,65.21a44.56,44.56,0,0,0-34.31-43.35,65,65,0,0,0-103,7.58,47.49,47.49,0,0,0-.09,90.23,38.12,38.12,0,0,0,70.71,13.61A38.35,38.35,0,0,0,160.23,93,44.35,44.35,0,0,0,170,65.21Z"/><g class="cls-2"><path class="cls-3" d="M51.86,20.23h-19V10.48h19ZM33.6,19.48H51.11V11.23H33.6Z"/><path class="cls-3" d="M65.55,29.77h-19V20h19ZM47.29,29H64.8V20.76H47.29Z"/></g><g class="cls-2"><path class="cls-3" d="M150.38,73.52h-19v-10h19Zm-18.26-.75h17.51v-8.5H132.12Z"/><path class="cls-3" d="M164.08,83.32h-19v-10h19Zm-18.26-.75h17.51v-8.5H145.82Z"/></g><polygon class="cls-4" points="154.42 53.53 151.76 52.28 148.82 52.44 149.18 49.52 148.12 46.77 151.01 46.21 153.29 44.36 154.72 46.93 157.19 48.53 155.18 50.68 154.42 53.53"/><polygon class="cls-4" points="160.13 102.9 157.46 101.65 154.52 101.81 154.88 98.89 153.82 96.14 156.71 95.58 159 93.72 160.42 96.3 162.89 97.9 160.88 100.05 160.13 102.9"/><polygon class="cls-4" points="81.73 19.24 79.06 17.99 76.12 18.15 76.49 15.23 75.43 12.48 78.32 11.92 80.6 10.07 82.03 12.64 84.5 14.24 82.49 16.39 81.73 19.24"/><polygon class="cls-4" points="10.86 98.99 8.19 97.75 5.25 97.91 5.61 94.98 4.55 92.24 7.44 91.68 9.73 89.82 11.15 92.4 13.62 94 11.61 96.15 10.86 98.99"/><rect class="cls-5" x="19.09" y="27.47" width="123.04" height="101.4"/><path class="cls-6" d="M19.09,28.95v1.47H143V28.95a2.74,2.74,0,0,0-2.74-2.74H21.83A2.74,2.74,0,0,0,19.09,28.95Z"/><path class="cls-7" d="M18.43,126.67a3.21,3.21,0,0,0,3.21,3.21H140.27a2.9,2.9,0,0,0,2.94-2.87v-17.9H18.43Z"/><path class="cls-8" d="M81.11,93"/><rect class="cls-6" x="26.02" y="48.94" width="110.17" height="71.42"/><polygon class="cls-9" points="63.48 112.8 47.69 97.48 34.25 110.99 30.71 107.46 47.63 90.46 63.28 105.64 80.26 87.27 89.62 94.85 106.05 75.51 109.86 78.75 90.27 101.81 80.75 94.1 63.48 112.8"/><path class="cls-10" d="M140.43,130.6H21.72a4,4,0,0,1-3.95-3.95V29.33a4,4,0,0,1,3.95-3.95H140.43a4,4,0,0,1,3.95,3.95v97.32A4,4,0,0,1,140.43,130.6ZM21.72,27.38a2,2,0,0,0-1.95,1.95v97.32a2,2,0,0,0,1.95,1.95H140.43a2,2,0,0,0,1.95-1.95V29.33a2,2,0,0,0-1.95-1.95Z"/><circle class="cls-11" cx="47.71" cy="41.33" r="2.89"/><circle class="cls-9" cx="38.31" cy="41.33" r="2.89"/><circle class="cls-12" cx="28.92" cy="41.33" r="2.89"/><path class="cls-13" d="M48.05,41a2.89,2.89,0,0,1,2.43,1.34,2.86,2.86,0,0,0,.13-.8,2.89,2.89,0,1,0-5.33,1.56A2.88,2.88,0,0,1,48.05,41Z"/><path class="cls-13" d="M38.74,41a2.89,2.89,0,0,1,2.43,1.34,2.86,2.86,0,0,0,.13-.8A2.89,2.89,0,1,0,36,43.08,2.88,2.88,0,0,1,38.74,41Z"/><path class="cls-13" d="M29.32,41a2.89,2.89,0,0,1,2.43,1.34,2.86,2.86,0,0,0,.13-.8,2.89,2.89,0,1,0-5.33,1.56A2.88,2.88,0,0,1,29.32,41Z"/><circle class="cls-7" cx="68.53" cy="59.4" r="4.86"/><circle class="cls-7" cx="52.74" cy="59.4" r="4.86"/><circle class="cls-7" cx="36.95" cy="59.4" r="4.86"/><circle class="cls-6" cx="132.54" cy="40.06" r="4.86"/><circle class="cls-6" cx="116.75" cy="40.06" r="4.86"/><circle class="cls-6" cx="100.97" cy="40.06" r="4.86"/></g></g></svg>