<svg xmlns="http://www.w3.org/2000/svg" viewBox="0 0 152.62 138.3"><defs><style>.cls-1{opacity:0.1;}.cls-2{fill:#463e3b;}.cls-3{fill:#ddebff;}.cls-3,.cls-4{opacity:0.5;}.cls-4{fill:#8bd2ff;}.cls-5{fill:#ceeaff;}.cls-6{opacity:0.06;}.cls-11,.cls-7{fill:#fff;}.cls-8{fill:#60609a;}.cls-9{opacity:0.25;}.cls-10{fill:#6262a0;}.cls-11{font-size:39.22px;font-family:FiraSans-Bold, Fira Sans;font-weight:700;}.cls-12{fill:#c0cedf;}</style></defs><title>Asset 240</title><g id="Layer_2" data-name="Layer 2"><g id="Layer_1-2" data-name="Layer 1"><g class="cls-1"><path class="cls-2" d="M59.5,121H40.41V111.2H59.5Zm-18.34-.75H58.75V112H41.16Z"/><path class="cls-2" d="M73.26,130.57H54.17v-9.79H73.26Zm-18.34-.75H72.51v-8.29H54.92Z"/></g><path class="cls-3" d="M152.62,58.76a40.12,40.12,0,0,0-30.8-39.07,58.19,58.19,0,0,0-92.46,6.83,42.85,42.85,0,0,0-.08,81.31A34.17,34.17,0,0,0,89,125.34a38.52,38.52,0,0,0,49.06-35.67A40.07,40.07,0,0,0,152.62,58.76Z"/><g class="cls-1"><path class="cls-2" d="M132.75,52.39H113.66v-9h19.09Zm-18.34-.75H132V44.16H114.41Z"/><path class="cls-2" d="M146.5,61.11H127.41v-9H146.5Zm-18.34-.75h17.59V52.88H128.16Z"/></g><g class="cls-1"><path class="cls-2" d="M19.4,65.31H.31v-9H19.4ZM1.06,64.56H18.65V57.08H1.06Z"/><path class="cls-2" d="M33.16,74H14.07V65H33.16Zm-18.34-.75H32.41V65.8H14.82Z"/></g><polygon class="cls-4" points="143.29 89.54 140.61 88.29 137.66 88.45 138.02 85.51 136.96 82.75 139.86 82.19 142.16 80.33 143.59 82.91 146.07 84.52 144.05 86.68 143.29 89.54"/><polygon class="cls-4" points="36.6 13.99 33.92 12.73 30.97 12.89 31.33 9.96 30.27 7.2 33.17 6.64 35.47 4.77 36.9 7.36 39.38 8.97 37.36 11.13 36.6 13.99"/><polygon class="cls-4" points="87.75 138.3 85.07 137.05 82.11 137.21 82.48 134.27 81.41 131.51 84.32 130.95 86.61 129.09 88.04 131.67 90.53 133.28 88.51 135.44 87.75 138.3"/><polygon class="cls-4" points="29.32 108.31 26.64 107.05 23.69 107.21 24.05 104.28 22.99 101.52 25.89 100.96 28.18 99.09 29.62 101.68 32.1 103.29 30.08 105.45 29.32 108.31"/><polygon class="cls-4" points="124.98 27.45 122.3 26.2 119.35 26.36 119.71 23.43 118.65 20.67 121.55 20.11 123.85 18.24 125.28 20.83 127.76 22.43 125.74 24.6 124.98 27.45"/><g class="cls-1"><path class="cls-2" d="M80.76,20.72H64.22V12.88H80.76ZM65,20H80V13.63H65Z"/><path class="cls-2" d="M68.92,28.23H52.37V20.39H68.92Zm-15.79-.75h15V21.14h-15Z"/></g><path class="cls-5" d="M49.36,10.87V32.74A1.41,1.41,0,0,1,48,34.15H26.08a1.41,1.41,0,0,0-1.41,1.41V119.5a1.41,1.41,0,0,0,1.41,1.41H110a1.41,1.41,0,0,0,1.41-1.41V10.87A1.41,1.41,0,0,0,110,9.46H50.77A1.41,1.41,0,0,0,49.36,10.87Z"/><g class="cls-6"><rect x="25.68" y="114.84" width="86.76" height="6.13"/></g><rect class="cls-7" x="49.78" y="9.46" width="62.07" height="4.52"/><path class="cls-8" d="M112.43,121.91H23.67V33.15H43.74a4.62,4.62,0,0,0,4.62-4.62V8.46h64.07Zm-86.76-2h84.76V10.46H50.36V28.53a6.63,6.63,0,0,1-6.62,6.62H25.67Z"/><g class="cls-9"><rect class="cls-10" x="39.6" y="68.15" width="29.46" height="2"/><rect class="cls-10" x="39.6" y="81.8" width="22.07" height="2"/><rect class="cls-10" x="39.6" y="88.62" width="29.46" height="2"/><rect class="cls-10" x="39.6" y="74.97" width="41.21" height="2"/></g><text class="cls-11" transform="translate(57.02 55.38)">Aa</text><path class="cls-12" d="M47.74,9.75,24.85,32.65a1,1,0,0,0,.71,1.72H46a3.5,3.5,0,0,0,3.5-3.5V10.47A1,1,0,0,0,47.74,9.75Z"/><path class="cls-8" d="M46,35.37H25.56a2,2,0,0,1-1.42-3.43L47,9a2,2,0,0,1,3.43,1.42v20.4A4.5,4.5,0,0,1,46,35.37Zm2.48-24.91L25.55,33.35l20.41,0a2.5,2.5,0,0,0,2.5-2.5Z"/></g></g></svg>