<svg xmlns="http://www.w3.org/2000/svg" viewBox="0 0 152.73 116.43"><defs><style>.cls-1{fill:#ddebff;}.cls-1,.cls-5{opacity:0.5;}.cls-2{fill:#fff;}.cls-3{opacity:0.1;}.cls-4{fill:#463e3b;}.cls-5{fill:#8bd2ff;}.cls-6{fill:none;stroke:#fff;stroke-miterlimit:10;stroke-width:3px;}.cls-7{fill:#ceeaff;}.cls-8{fill:#e6f4ff;}.cls-9{fill:#60609a;}.cls-10{fill:#ffb82a;}</style></defs><title>Asset 380</title><g id="Layer_2" data-name="Layer 2"><g id="Layer_1-2" data-name="Layer 1"><path class="cls-1" d="M87.34,111.55c21.14,0,38.83-8.65,43.48-20.27,13.44-7,21.91-17.28,21.91-28.71,0-13.45-11.75-25.28-29.52-32.13C117,19.22,99.08,11.11,78,11.11S39,19.19,32.73,30.38C14.22,32,0,41.33,0,52.67,0,61,7.68,68.26,19.08,72.16c-3.28,3.34-5.16,7.2-5.16,11.33,0,12.52,17.23,22.67,38.48,22.67a65,65,0,0,0,7-.39A66.2,66.2,0,0,0,87.34,111.55Z"/><path class="cls-2" d="M47.2,31.53a10.41,10.41,0,1,0-20.59-3.11A10.42,10.42,0,1,0,21.47,48a10.4,10.4,0,0,0,17.1,2.35A10.42,10.42,0,1,0,47.2,31.53Z"/><g class="cls-3"><path class="cls-4" d="M94.4,38.5h-18V29.26h18Zm-17.22-.75H93.65V30H77.18Z"/><path class="cls-4" d="M107.31,47.49h-18V38.25h18Zm-17.21-.75h16.46V39H90.09Z"/></g><g class="cls-3"><path class="cls-4" d="M66.31,103.58h-18v-8h18Zm-17.21-.75H65.56V96.32H49.09Z"/><path class="cls-4" d="M79.22,111.27h-18v-8h18ZM62,110.52H78.47V104H62Z"/></g><g class="cls-3"><path class="cls-4" d="M45.88,59.28h-18V50.81h18Zm-17.22-.75H45.13v-7H28.67Z"/><path class="cls-4" d="M58.8,67.47h-18V59h18Zm-17.22-.75H58v-7H41.58Z"/></g><polygon class="cls-5" points="108.94 19.55 106.43 18.37 103.66 18.52 104 15.77 103 13.18 105.72 12.65 107.88 10.9 109.22 13.33 111.55 14.84 109.66 16.87 108.94 19.55"/><polygon class="cls-5" points="104.67 68.38 102.15 67.21 99.38 67.36 99.72 64.6 98.72 62.01 101.45 61.48 103.6 59.73 104.94 62.16 107.28 63.67 105.38 65.7 104.67 68.38"/><polygon class="cls-5" points="53.63 20.45 51.12 19.27 48.35 19.42 48.69 16.67 47.69 14.08 50.41 13.55 52.57 11.8 53.91 14.23 56.24 15.73 54.35 17.76 53.63 20.45"/><polygon class="cls-5" points="98.8 112.07 96.28 110.89 93.51 111.04 93.85 108.29 92.85 105.7 95.58 105.17 97.73 103.42 99.08 105.85 101.41 107.36 99.51 109.39 98.8 112.07"/><polygon class="cls-5" points="45.02 82.66 42.51 81.48 39.74 81.63 40.08 78.88 39.08 76.29 41.8 75.76 43.96 74.01 45.3 76.44 47.63 77.95 45.74 79.97 45.02 82.66"/><path class="cls-6" d="M84.65,69.12"/><path class="cls-7" d="M64.49,30.52A99.8,99.8,0,0,0,61,56.15a96.35,96.35,0,0,0,1.29,16L52.65,86.21v27.9l12.82-12.05V84.54c3.31,9.5,7.29,14,7.29,14h7.83s4-4.8,7.3-14.37v17.88l12.83,12.05V86.21L91,72.08a92.14,92.14,0,0,0,1.34-15.93,100.08,100.08,0,0,0-3.46-25.63,22,22,0,0,1-12.19,4A22,22,0,0,1,64.49,30.52Z"/><path class="cls-8" d="M92.4,58.45a90.27,90.27,0,0,1-1.32,13.64l.11.16a27.8,27.8,0,0,1-14.43,4.38,27.89,27.89,0,0,1-14.4-4.39l.06-.09a95.67,95.67,0,0,1-1.27-13.67c0-.76,0-1.53,0-2.32a99.57,99.57,0,0,1,3.46-25.63,23.4,23.4,0,0,0,8,3.51,19.12,19.12,0,0,0,8.33,0,23.78,23.78,0,0,0,8-3.51,100.42,100.42,0,0,1,3.46,25.63C92.43,56.93,92.42,57.7,92.4,58.45Z"/><path class="cls-2" d="M91,61.71l.11.16a27.8,27.8,0,0,1-14.43,4.38,27.89,27.89,0,0,1-14.4-4.39l.06-.09a95.63,95.63,0,0,1-1.26-13.5c0,.47,0,.94,0,1.41,0,.79,0,1.56,0,2.32a95.67,95.67,0,0,0,1.27,13.67l-.06.09a27.89,27.89,0,0,0,14.4,4.39A27.8,27.8,0,0,0,91.1,65.77L91,65.62A90.27,90.27,0,0,0,92.31,52c0-.75,0-1.52,0-2.29,0-.53,0-1,0-1.57A90.26,90.26,0,0,1,91,61.71Z"/><path class="cls-2" d="M91.87,59.67a30.53,30.53,0,0,1-15.23,4.38c-5,0-15.14-4.48-15.14-4.48V55.67s10.15,4.49,15.14,4.48a30.53,30.53,0,0,0,15.23-4.38Z"/><path class="cls-2" d="M92,53.81A30.53,30.53,0,0,1,76.73,58.2c-5,0-15.14-4.48-15.14-4.48V49.81s10.15,4.49,15.14,4.48A30.53,30.53,0,0,0,92,49.91Z"/><path class="cls-7" d="M64.58,34.44a23.4,23.4,0,0,0,8,3.51,19.12,19.12,0,0,0,8.33,0,23.78,23.78,0,0,0,8-3.51,100.9,100.9,0,0,1,3.43,24.44c0-.61,0-1.22,0-1.84A100.42,100.42,0,0,0,89,31.41a23.78,23.78,0,0,1-8,3.51,19.12,19.12,0,0,1-8.33,0,23.4,23.4,0,0,1-8-3.51A99.57,99.57,0,0,0,61.13,57c0,.71,0,1.41,0,2.1A99.93,99.93,0,0,1,64.58,34.44Z"/><path class="cls-2" d="M66.72,23.42c3.33,2.66,6.74,4.08,10,4.07s6.72-1.4,10.05-4.08a100.67,100.67,0,0,0-10-21.61A100.74,100.74,0,0,0,66.72,23.42Z"/><path class="cls-9" d="M101.73,116.43,86.9,102.5v-13a43.94,43.94,0,0,1-5.52,9.7l-.3.36H72.33l-.3-.34a39.47,39.47,0,0,1-5.54-9.42v12.7L51.67,116.42V85.9l9.63-14A98.2,98.2,0,0,1,60,56.15a100.74,100.74,0,0,1,3.49-25.89l.36-1.35,1.16.77A21,21,0,0,0,76.7,33.49a21,21,0,0,0,11.63-3.81l1.16-.77.36,1.35a101,101,0,0,1,3.49,25.89,93.83,93.83,0,0,1-1.29,15.7l9.68,14.06ZM88.9,101.63l10.83,10.17V86.52L89.95,72.31l.07-.4a91.53,91.53,0,0,0,1.33-15.76,98.55,98.55,0,0,0-3.08-24.06,21.39,21.39,0,0,1-23.14,0A98.29,98.29,0,0,0,62,56.15,95.86,95.86,0,0,0,63.32,72l.07.4L53.65,86.52V111.8l10.83-10.17v-23l1.94,5.57a47.63,47.63,0,0,0,6.82,13.35h6.87A52.53,52.53,0,0,0,87,83.85l1.95-5.6Z"/><path class="cls-2" d="M139,77.28a7.39,7.39,0,1,0-14.6-2.21A7.39,7.39,0,1,0,120.72,89a7.38,7.38,0,0,0,12.13,1.66A7.39,7.39,0,1,0,139,77.28Z"/><path class="cls-10" d="M83.08,14a13.56,13.56,0,0,1-6,1.48A13.49,13.49,0,0,1,71,14a86,86,0,0,1,6-11.36A86,86,0,0,1,83.08,14Z"/><path class="cls-9" d="M76.73,28.49h-.09C73.16,28.49,69.58,27,66,24.2l-.55-.44.22-.66A100.8,100.8,0,0,1,75.86,1.25L76.69,0l.83,1.25A100.75,100.75,0,0,1,87.68,23.09l.22.66-.55.44C83.8,27,80.23,28.49,76.73,28.49Zm-.05-2h0a14.76,14.76,0,0,0,8.83-3.43A106.11,106.11,0,0,0,76.69,3.7a106.23,106.23,0,0,0-8.87,19.37,14.8,14.8,0,0,0,8.83,3.43Z"/></g></g></svg>