<svg xmlns="http://www.w3.org/2000/svg" viewBox="0 0 144.44 134.65"><defs><style>.cls-1{fill:#ddebff;}.cls-1,.cls-10,.cls-12,.cls-13,.cls-4{opacity:0.5;}.cls-2{opacity:0.1;}.cls-3{fill:#463e3b;}.cls-4{fill:#8bd2ff;}.cls-5{fill:#ebf4ff;}.cls-6{fill:#e6f4ff;}.cls-7{fill:#c0e6ff;}.cls-8{opacity:0.35;}.cls-9{fill:#fff;}.cls-10{fill:#94c5e6;}.cls-11{fill:#60609a;}.cls-12{fill:#c0cedf;}.cls-13{fill:#c1cad6;}</style></defs><title>Asset 390</title><g id="Layer_2" data-name="Layer 2"><g id="Layer_1-2" data-name="Layer 1"><path class="cls-1" d="M143.26,58.84a37.66,37.66,0,0,0-28.91-36.67,54.62,54.62,0,0,0-86.79,6.42,40.22,40.22,0,0,0-.08,76.33,32.07,32.07,0,0,0,56.09,16.43,36.16,36.16,0,0,0,46-33.49A37.61,37.61,0,0,0,143.26,58.84Z"/><g class="cls-2"><path class="cls-3" d="M47.66,122.36h-18v-9.24h18Zm-17.22-.75H46.91v-7.74H30.44Z"/><path class="cls-3" d="M60.57,131.35h-18v-9.24h18Zm-17.21-.75H59.82v-7.74H43.35Z"/></g><g class="cls-2"><path class="cls-3" d="M123.58,54h-18V45.55h18Zm-17.22-.75h16.47v-7H106.36Z"/><path class="cls-3" d="M136.49,62.21h-18V53.74h18Zm-17.22-.75h16.47v-7H119.27Z"/></g><g class="cls-2"><path class="cls-3" d="M85.62,16h-18V7.5h18ZM68.4,15.23H84.87v-7H68.4Z"/><path class="cls-3" d="M72.71,24.16h-18V15.68h18Zm-17.22-.75H72v-7H55.49Z"/></g><polygon class="cls-4" points="112.46 8.65 109.95 7.47 107.18 7.62 107.52 4.87 106.52 2.28 109.24 1.75 111.4 0 112.74 2.43 115.07 3.94 113.18 5.97 112.46 8.65"/><polygon class="cls-4" points="141.83 88.88 139.32 87.7 136.55 87.85 136.89 85.09 135.89 82.5 138.61 81.98 140.77 80.23 142.11 82.66 144.44 84.17 142.55 86.19 141.83 88.88"/><polygon class="cls-4" points="33.3 17.96 30.78 16.78 28.01 16.93 28.35 14.18 27.35 11.59 30.08 11.06 32.23 9.31 33.58 11.74 35.91 13.25 34.01 15.28 33.3 17.96"/><polygon class="cls-4" points="81.31 134.65 78.8 133.47 76.02 133.62 76.36 130.87 75.36 128.28 78.09 127.75 80.24 126 81.59 128.43 83.92 129.93 82.02 131.96 81.31 134.65"/><polygon class="cls-4" points="17.91 115.14 15.39 113.97 12.62 114.11 12.96 111.36 11.96 108.77 14.69 108.24 16.84 106.49 18.19 108.92 20.52 110.43 18.62 112.46 17.91 115.14"/><rect class="cls-5" x="57.67" y="100.9" width="33.88" height="8.55"/><path class="cls-6" d="M125,34.32V97.21a4.07,4.07,0,0,1-4.07,4.07H28.26a4.07,4.07,0,0,1-4.07-4.07V34.32a4.08,4.08,0,0,1,4.07-4.08H121A4.08,4.08,0,0,1,125,34.32Z"/><rect class="cls-7" x="32.57" y="38.05" width="84.33" height="50.02"/><g class="cls-8"><polygon class="cls-9" points="116.72 43.33 116.72 53.19 32.4 70.49 32.4 60.64 116.72 43.33"/><polygon class="cls-9" points="116.72 56.2 116.72 61.18 32.4 78.49 32.4 73.5 116.72 56.2"/></g><rect class="cls-10" x="32.57" y="38.05" width="84.33" height="3.22"/><rect class="cls-11" x="54.01" y="109" width="42.26" height="2"/><path class="cls-12" d="M24.68,96v1.12a4.07,4.07,0,0,0,4.07,4.07h92.69a4.07,4.07,0,0,0,4.07-4.07V96Z"/><polygon class="cls-13" points="59.58 101.41 57.88 104 91.65 104 91.65 101.41 59.58 101.41"/><path class="cls-11" d="M93,111H57.15V100.41H93Zm-33.88-2H91v-6.55H59.15Z"/><path class="cls-11" d="M117.9,89.07H31.57V37H117.9Zm-84.33-2H115.9V39H33.57Z"/><path class="cls-9" d="M123.83,32v-.57c0-.79-1.68-1.43-3.75-1.43H28.31c-2.07,0-3.75.64-3.75,1.43V32Z"/><path class="cls-11" d="M121.08,102H28.39A5.07,5.07,0,0,1,23.32,97V34.09A5.08,5.08,0,0,1,28.39,29h92.69a5.08,5.08,0,0,1,5.07,5.08V97A5.07,5.07,0,0,1,121.08,102ZM28.39,31a3.08,3.08,0,0,0-3.07,3.08V97A3.07,3.07,0,0,0,28.39,100h92.69A3.07,3.07,0,0,0,124.15,97V34.09A3.08,3.08,0,0,0,121.08,31Z"/></g></g></svg>