<svg xmlns="http://www.w3.org/2000/svg" viewBox="0 0 153.88 143.44"><defs><style>.cls-1{fill:#ddebff;}.cls-1,.cls-4{opacity:0.5;}.cls-2{opacity:0.1;}.cls-3{fill:#463e3b;}.cls-4{fill:#8bd2ff;}.cls-5{fill:#ffd05b;}.cls-6{fill:#ffb061;}.cls-7{fill:#fff;}.cls-8{fill:#60609a;}.cls-9{fill:#c0e6ff;}.cls-10{fill:#a9d5ed;}</style></defs><title>Asset 230</title><g id="Layer_2" data-name="Layer 2"><g id="Layer_1-2" data-name="Layer 1"><path class="cls-1" d="M152.62,62.68a40.12,40.12,0,0,0-30.8-39.07,58.19,58.19,0,0,0-92.46,6.83,42.85,42.85,0,0,0-.08,81.31A34.17,34.17,0,0,0,89,129.27a38.52,38.52,0,0,0,49.06-35.67A40.07,40.07,0,0,0,152.62,62.68Z"/><g class="cls-2"><path class="cls-3" d="M50.75,130.33H31.66v-9.79H50.75Zm-18.34-.75H50v-8.29H32.41Z"/><path class="cls-3" d="M64.5,139.91H45.41v-9.79H64.5Zm-18.34-.75H63.75v-8.29H46.16Z"/></g><g class="cls-2"><path class="cls-3" d="M131.62,57.54H112.53v-9h19.09Zm-18.34-.75h17.59V49.3H113.28Z"/><path class="cls-3" d="M145.38,66.25H126.29v-9h19.09ZM127,65.5h17.59V58H127Z"/></g><g class="cls-2"><path class="cls-3" d="M91.19,17H72.1V8H91.19Zm-18.34-.75H90.44V8.77H72.85Z"/><path class="cls-3" d="M77.43,25.71H58.34v-9H77.43ZM59.09,25H76.68V17.48H59.09Z"/></g><polygon class="cls-4" points="119.81 9.21 117.13 7.96 114.18 8.12 114.54 5.19 113.48 2.43 116.38 1.86 118.68 0 120.11 2.59 122.59 4.2 120.57 6.36 119.81 9.21"/><polygon class="cls-4" points="151.1 94.68 148.42 93.43 145.47 93.59 145.83 90.65 144.76 87.89 147.67 87.33 149.96 85.47 151.4 88.06 153.88 89.66 151.86 91.82 151.1 94.68"/><polygon class="cls-4" points="35.48 19.13 32.8 17.88 29.84 18.04 30.2 15.1 29.14 12.34 32.05 11.78 34.34 9.92 35.77 12.51 38.25 14.11 36.24 16.27 35.48 19.13"/><polygon class="cls-4" points="86.62 143.44 83.94 142.19 80.99 142.35 81.35 139.41 80.29 136.65 83.19 136.09 85.49 134.23 86.92 136.82 89.4 138.42 87.38 140.58 86.62 143.44"/><polygon class="cls-4" points="19.08 122.66 16.4 121.41 13.45 121.57 13.81 118.64 12.75 115.88 15.65 115.31 17.95 113.45 19.38 116.04 21.86 117.64 19.84 119.81 19.08 122.66"/><circle class="cls-5" cx="76.75" cy="72.55" r="52.89"/><path class="cls-6" d="M28,72.55A52.88,52.88,0,0,1,78.81,19.71c-.68,0-1.37-.05-2.06-.05a52.89,52.89,0,1,0,0,105.77c.69,0,1.37,0,2.06-.05A52.88,52.88,0,0,1,28,72.55Z"/><path class="cls-7" d="M124.2,72.55A52.88,52.88,0,0,0,73.37,19.71c.68,0,1.37-.05,2.06-.05a52.89,52.89,0,1,1,0,105.77c-.69,0-1.37,0-2.06-.05A52.88,52.88,0,0,0,124.2,72.55Z"/><path class="cls-8" d="M76.75,126.43a53.89,53.89,0,1,1,53.89-53.89A53.95,53.95,0,0,1,76.75,126.43Zm0-105.77a51.89,51.89,0,1,0,51.89,51.89A51.94,51.94,0,0,0,76.75,20.66Z"/><path class="cls-7" d="M75.11,103.52V98.06a32.43,32.43,0,0,1-18.38-8.14l5.45-6.5a25.89,25.89,0,0,0,12.93,6.5V75.43q-8.45-2-12.37-5.31t-3.92-9.75A13.63,13.63,0,0,1,63.34,49.8a18.3,18.3,0,0,1,11.77-4.48V41.58h4.78v3.81A31.22,31.22,0,0,1,95.43,51l-4.86,6.87a24.08,24.08,0,0,0-10.68-4.33v14h.22q8.59,2,12.62,5.45t4,10a13.57,13.57,0,0,1-4.63,10.65q-4.63,4.11-12.25,4.48v5.38ZM69.84,55.29a5.35,5.35,0,0,0-1.9,4.19,5.27,5.27,0,0,0,1.5,4q1.49,1.46,5.68,2.8V53.31A9,9,0,0,0,69.84,55.29ZM85.57,88.05A5.77,5.77,0,0,0,86,79.57Q84.37,78,79.89,76.69V90.14A10.46,10.46,0,0,0,85.57,88.05Z"/><polygon class="cls-9" points="120.93 88.29 76.75 76.37 88.67 120.54 97.4 105.88 110.53 119.02 119.4 110.15 106.27 97.01 120.93 88.29"/><polygon class="cls-10" points="93.43 112.1 88.46 120.44 83.81 103.25 93.43 112.1"/><polygon class="cls-7" points="115.89 91.28 120.93 88.29 76.75 76.37 78.02 81.07 115.89 91.28"/><path class="cls-8" d="M88.32,123.09l-13-48.14,48.14,13-15.59,9.28,12.93,12.93-10.28,10.28L97.6,107.5ZM78.17,77.78,89,118l8.18-13.73,13.34,13.34,7.46-7.46L104.65,96.81l13.73-8.18Z"/></g></g></svg>