<?xml version="1.0" encoding="utf-8"?>
<!-- Generator: Adobe Illustrator 22.0.0, SVG Export Plug-In . SVG Version: 6.00 Build 0)  -->
<svg version="1.1" id="Layer_1" xmlns="http://www.w3.org/2000/svg" xmlns:xlink="http://www.w3.org/1999/xlink" x="0px" y="0px"
	 viewBox="0 0 153.9 143.4" style="enable-background:new 0 0 153.9 143.4;" xml:space="preserve">
<style type="text/css">
	.st0{opacity:0.5;fill:#DDEBFF;enable-background:new    ;}
	.st1{opacity:0.1;}
	.st2{fill:#463E3B;}
	.st3{opacity:0.5;fill:#8BD2FF;enable-background:new    ;}
	.st4{opacity:0.5;fill:#CEDDEF;enable-background:new    ;}
	.st5{fill:#E6F4FF;}
	.st6{opacity:0.2;fill:#94C5E6;enable-background:new    ;}
	.st7{opacity:0.5;fill:#FFFFFF;enable-background:new    ;}
	.st8{fill:#C0E6FF;}
	.st9{fill:#60609A;}
	.st10{opacity:0.35;}
	.st11{fill:#FFFFFF;}
	.st12{opacity:0.5;fill:#94C5E6;enable-background:new    ;}
	.st13{fill:#FFB82A;}
</style>
<title>Asset 220</title>
<g id="Layer_2_1_">
	<g id="Layer_1-2">
		<path class="st0" d="M152.6,62.7c0-18.6-12.7-34.8-30.8-39.1c-21.3-24.1-58-26.4-82.1-5.1c-4,3.5-7.4,7.5-10.3,12
			C6.9,37.9-5.3,62.1,2.2,84.6c4.3,12.8,14.3,22.9,27.1,27.1c2.6,18.7,19.9,31.7,38.6,29c8.2-1.2,15.7-5.3,21.1-11.5
			c20.5,5.8,41.8-6,47.6-26.5c0.9-3,1.3-6.1,1.5-9.2C147.3,86,152.6,74.6,152.6,62.7z"/>
		<g class="st1">
			<path class="st2" d="M50.8,130.3H31.7v-9.8h19.1V130.3z M32.4,129.6H50v-8.3H32.4V129.6z"/>
			<path class="st2" d="M64.5,139.9H45.4v-9.8h19.1V139.9z M46.2,139.2h17.6v-8.3H46.2V139.2z"/>
		</g>
		<g class="st1">
			<path class="st2" d="M131.6,57.5h-19.1v-9h19.1V57.5z M113.3,56.8h17.6v-7.5h-17.6V56.8z"/>
			<path class="st2" d="M145.4,66.3h-19.1v-9h19.1V66.3z M127,65.5h17.6V58H127V65.5z"/>
		</g>
		<g class="st1">
			<path class="st2" d="M91.2,17H72.1V8h19.1V17z M72.9,16.3h17.6V8.8H72.8L72.9,16.3z"/>
			<path class="st2" d="M77.4,25.7H58.3v-9h19.1V25.7z M59.1,25h17.6v-7.5H59.1V25z"/>
		</g>
		<polygon class="st3" points="119.8,9.2 117.1,8 114.2,8.1 114.5,5.2 113.5,2.4 116.4,1.9 118.7,0 120.1,2.6 122.6,4.2 120.6,6.4 
					"/>
		<polygon class="st3" points="151.1,94.7 148.4,93.4 145.5,93.6 145.8,90.7 144.8,87.9 147.7,87.3 150,85.5 151.4,88.1 153.9,89.7 
			151.9,91.8 		"/>
		<polygon class="st3" points="35.5,19.1 32.8,17.9 29.8,18 30.2,15.1 29.1,12.3 32,11.8 34.3,9.9 35.8,12.5 38.3,14.1 36.2,16.3 		
			"/>
		<polygon class="st3" points="86.6,143.4 83.9,142.2 81,142.4 81.3,139.4 80.3,136.6 83.2,136.1 85.5,134.2 86.9,136.8 89.4,138.4 
			87.4,140.6 		"/>
		<polygon class="st3" points="19.1,122.7 16.4,121.4 13.4,121.6 13.8,118.6 12.8,115.9 15.6,115.3 18,113.4 19.4,116 21.9,117.6 
			19.8,119.8 		"/>
		<path class="st0" d="M99.3,109.7H54l-3.3,12.2c-0.5,1.8,0.6,3.6,2.3,4c0.3,0.1,0.6,0.1,0.9,0.1h45.5c1.8,0,3.3-1.5,3.3-3.3
			c0-0.3,0-0.6-0.1-0.9L99.3,109.7z"/>
		<polygon class="st4" points="99.3,112.8 52.5,112.8 53.3,109.9 98.6,109.9 		"/>
		<path class="st5" d="M136.8,91.7v15.7c0,1.3-1,2.3-2.3,2.3l0,0H98.5v-0.1H53.3v0.1h-36c-1.2,0-2.1-0.9-2.1-2.1v-16L136.8,91.7z"/>
		<rect x="15.2" y="91.5" class="st6" width="121.6" height="2.3"/>
		<path class="st7" d="M15.2,107.7L15.2,107.7c0,1.3,1,2.3,2.2,2.3c0,0,0,0,0,0h117.2c1.2,0,2.2-1,2.2-2.2v0v-0.1L15.2,107.7z"/>
		<path class="st8" d="M18.4,24.4h115.5c1.7,0,3.1,1.4,3.1,3.1c0,0,0,0,0,0v64.1l0,0H15.3l0,0V27.6C15.3,25.8,16.7,24.4,18.4,24.4z"
			/>
		<path class="st9" d="M98.7,127H53.2c-2.4,0-4.3-1.9-4.3-4.3c0-0.4,0.1-0.8,0.1-1.1l3.5-12.9h46.8l3.5,12.9c0.6,2.3-0.7,4.6-3,5.3
			C99.5,126.9,99.1,127,98.7,127z M54.1,110.7L51,122.1c-0.3,1.2,0.4,2.5,1.6,2.8c0.2,0.1,0.4,0.1,0.6,0.1h45.5c1.3,0,2.3-1,2.3-2.3
			c0-0.2,0-0.4-0.1-0.6l-3.1-11.4H54.1z"/>
		<polygon class="st9" points="137.8,105.5 135.8,105.5 135.8,92.7 16.1,92.7 16.1,105.5 14.1,105.5 14.1,90.7 137.8,90.7 		"/>
		<circle class="st9" cx="76" cy="100.7" r="2.6"/>
		<g class="st10">
			<polygon class="st11" points="137.6,34.8 137.6,49.1 15.6,74.1 15.6,59.9 			"/>
			<polygon class="st11" points="137.6,53.4 137.6,60.7 15.6,85.7 15.6,78.5 			"/>
		</g>
		<path class="st12" d="M15,27.3v1.1h122v-1.5c0-1.5-1.2-2.8-2.8-2.8h-116C16.4,24.1,15,25.5,15,27.3z"/>
		<path class="st9" d="M133.7,110.7H18.2c-2.3,0-4.1-1.8-4.1-4.1v-79c0-2.3,1.8-4.1,4.1-4.1c0,0,0,0,0,0h115.5
			c2.3,0,4.1,1.8,4.1,4.1c0,0,0,0,0,0v79C137.8,108.9,136,110.7,133.7,110.7L133.7,110.7z M18.2,25.4c-1.2,0-2.1,1-2.1,2.1v79
			c0,1.2,1,2.1,2.1,2.1h115.5c1.2,0,2.1-1,2.1-2.1l0,0v-79c0-1.2-1-2.1-2.1-2.1l0,0L18.2,25.4z"/>
	</g>
</g>
<polygon class="st13" points="103.6,88.5 134.5,88.5 130.4,82.4 107.7,82.4 "/>
</svg>
