<svg xmlns="http://www.w3.org/2000/svg" viewBox="0 0 148.82 138.73"><defs><style>.cls-1{fill:#ddebff;}.cls-1,.cls-12,.cls-15,.cls-7{opacity:0.5;}.cls-2{fill:#ebf4ff;}.cls-3{fill:#a5b5d0;}.cls-4{fill:#e6f4ff;}.cls-5{opacity:0.1;}.cls-6{fill:#463e3b;}.cls-7{fill:#8bd2ff;}.cls-8{fill:#60609a;}.cls-9{fill:#c0e6ff;}.cls-10{opacity:0.35;}.cls-11{fill:#fff;}.cls-12{fill:#94c5e6;}.cls-13,.cls-15{fill:#c0cedf;}.cls-14{fill:#262626;opacity:0.15;}</style></defs><title>Asset 340</title><g id="Layer_2" data-name="Layer 2"><g id="Layer_1-2" data-name="Layer 1"><path class="cls-1" d="M147.61,60.63a38.8,38.8,0,0,0-29.79-37.79A56.28,56.28,0,0,0,28.4,29.45a41.44,41.44,0,0,0-.08,78.64,33.07,33.07,0,0,0,63.9,6.49,56.42,56.42,0,0,0,25.19-16.08A38.8,38.8,0,0,0,147.61,60.63Z"/><rect class="cls-2" x="42.14" y="102.61" width="34.91" height="8.81"/><rect class="cls-3" x="42.95" y="102.66" width="34.91" height="4.4"/><path class="cls-4" d="M112.23,33.26v63.2a4.14,4.14,0,0,1-4.19,4.09H12.53a4.14,4.14,0,0,1-4.19-4.09V33.26a4.15,4.15,0,0,1,4.19-4.1H108A4.15,4.15,0,0,1,112.23,33.26Z"/><circle class="cls-1" cx="96.32" cy="89.18" r="37.27"/><g class="cls-5"><path class="cls-6" d="M49.09,126.06H30.6v-9.5H49.09Zm-17.74-.75h17v-8h-17Z"/><path class="cls-6" d="M62.4,135.32H43.91v-9.5H62.4Zm-17.74-.75h17v-8h-17Z"/></g><g class="cls-5"><path class="cls-6" d="M127.31,55.66H108.83V46.95h18.49Zm-17.74-.75h17V47.7h-17Z"/><path class="cls-6" d="M140.62,64.09H122.13V55.38h18.49Zm-17.74-.75h17V56.13h-17Z"/></g><g class="cls-5"><path class="cls-6" d="M88.2,16.45H69.71V7.74H88.2ZM70.46,15.7h17V8.49h-17Z"/><path class="cls-6" d="M74.9,24.88H56.41V16.17H74.9Zm-17.74-.75h17V16.92h-17Z"/></g><polygon class="cls-7" points="115.88 8.91 113.28 7.7 110.43 7.85 110.78 5.02 109.75 2.35 112.56 1.8 114.78 0 116.16 2.5 118.56 4.06 116.61 6.15 115.88 8.91"/><polygon class="cls-7" points="146.13 91.57 143.54 90.36 140.69 90.52 141.04 87.68 140.01 85.01 142.82 84.47 145.04 82.66 146.42 85.16 148.82 86.72 146.87 88.81 146.13 91.57"/><polygon class="cls-7" points="34.31 18.5 31.72 17.29 28.86 17.45 29.21 14.61 28.18 11.94 30.99 11.39 33.21 9.59 34.6 12.09 37 13.65 35.05 15.74 34.31 18.5"/><polygon class="cls-7" points="83.78 138.73 81.19 137.52 78.33 137.67 78.68 134.84 77.65 132.17 80.46 131.62 82.68 129.82 84.06 132.32 86.47 133.88 84.51 135.97 83.78 138.73"/><polygon class="cls-7" points="18.45 118.63 15.86 117.42 13.01 117.58 13.36 114.74 12.33 112.07 15.14 111.53 17.36 109.72 18.74 112.23 21.14 113.78 19.19 115.87 18.45 118.63"/><path class="cls-8" d="M78.55,112.94H41.64V102.14H78.55Zm-34.91-2H76.55v-6.81H43.64Z"/><rect class="cls-9" x="16.29" y="37.85" width="86.89" height="51.54"/><g class="cls-10"><polygon class="cls-11" points="102.99 43.3 102.99 53.45 16.1 71.28 16.1 61.13 102.99 43.3"/><polygon class="cls-11" points="102.99 56.55 102.99 61.69 16.1 79.52 16.1 74.38 102.99 56.55"/></g><rect class="cls-12" x="16.29" y="37.85" width="86.89" height="3.32"/><rect class="cls-8" x="38.38" y="110.99" width="43.54" height="2"/><path class="cls-13" d="M7.79,99.88v.55c0,1.09,1.87,2,4.19,2h95.5c2.32,0,4.19-.88,4.19-2v-.55Z"/><path class="cls-8" d="M103.81,90.22H15.21V37.59h88.6Zm-86.6-2h84.6V39.59H17.21Z"/><path class="cls-11" d="M111.47,31.92v-.57c0-.79-1.75-1.43-3.9-1.43H12.1c-2.15,0-3.9.64-3.9,1.43v.57Z"/><path class="cls-8" d="M107.48,103.77H12a5.2,5.2,0,0,1-5.19-5.19V33.78A5.21,5.21,0,0,1,12,28.57h95.5a5.21,5.21,0,0,1,5.19,5.21v64.8A5.2,5.2,0,0,1,107.48,103.77ZM12,30.57a3.2,3.2,0,0,0-3.19,3.21v64.8A3.2,3.2,0,0,0,12,101.77h95.5a3.2,3.2,0,0,0,3.19-3.19V33.78a3.2,3.2,0,0,0-3.19-3.21Z"/><path class="cls-14" d="M86.15,103.21V48.53a3.23,3.23,0,0,1,3.17-3.28h15.87l-9.71,58Z"/><rect class="cls-4" x="89.48" y="45.25" width="37.77" height="69.96" rx="2.14" ry="2.14"/><circle class="cls-8" cx="108" cy="109.86" r="2.81"/><rect class="cls-9" x="92.45" y="52.57" width="31.4" height="51.66"/><rect class="cls-12" x="92.77" y="52.33" width="31.4" height="3.89"/><g class="cls-10"><polygon class="cls-11" points="124.05 65.61 124.05 70.66 93.71 79.53 93.71 74.48 124.05 65.61"/><polygon class="cls-11" points="124.05 72.21 124.05 74.76 93.71 83.63 93.71 81.08 124.05 72.21"/></g><g class="cls-10"><polygon class="cls-11" points="124.05 83.08 124.05 88.13 93.21 97 93.21 91.95 124.05 83.08"/><polygon class="cls-11" points="124.05 89.67 124.05 92.23 93.21 101.1 93.21 98.54 124.05 89.67"/></g><path class="cls-8" d="M125.29,104.74H91.88V51.57h33.4Zm-31.4-2h29.4V53.57H93.88Z"/><path class="cls-11" d="M127.25,47.24v-.57a1.43,1.43,0,0,0-1.43-1.43H90.91a1.43,1.43,0,0,0-1.43,1.43v.57Z"/><path class="cls-15" d="M89.48,112.54v.57a1.43,1.43,0,0,0,1.43,1.43h34.92a1.43,1.43,0,0,0,1.43-1.43v-.57Z"/><path class="cls-8" d="M125.11,116.2H91.62a3.14,3.14,0,0,1-3.14-3.14V47.39a3.14,3.14,0,0,1,3.14-3.14h33.49a3.14,3.14,0,0,1,3.14,3.14v65.67A3.14,3.14,0,0,1,125.11,116.2Zm-33.49-70a1.14,1.14,0,0,0-1.14,1.14v65.67a1.14,1.14,0,0,0,1.14,1.14h33.49a1.14,1.14,0,0,0,1.14-1.14V47.39a1.14,1.14,0,0,0-1.14-1.14Z"/></g></g></svg>