<?xml version="1.0" encoding="utf-8"?>
<!-- Generator: Adobe Illustrator 22.0.0, SVG Export Plug-In . SVG Version: 6.00 Build 0)  -->
<svg version="1.1" id="Layer_1" xmlns="http://www.w3.org/2000/svg" xmlns:xlink="http://www.w3.org/1999/xlink" x="0px" y="0px"
	 viewBox="0 0 166.7 139.9" style="enable-background:new 0 0 166.7 139.9;" xml:space="preserve">
<style type="text/css">
	.st0{opacity:0.5;fill:#8BD2FF;enable-background:new    ;}
	.st1{opacity:0.5;fill:#DDEBFF;enable-background:new    ;}
	.st2{opacity:0.1;}
	.st3{fill:#463E3B;}
	.st4{fill:#FFFFFF;}
	.st5{fill:#E6F4FF;}
	.st6{fill:none;stroke:#FFFFFF;stroke-width:3;stroke-miterlimit:10;}
	.st7{fill:#CEEAFF;}
	.st8{fill:#FFB82A;}
	.st9{opacity:0.15;fill:#6262A0;enable-background:new    ;}
	.st10{fill:#60609A;}
	.st11{fill:#25C83A;}
	.st12{fill:#FF5750;}
	.st13{opacity:0.15;fill:#FFFFFF;enable-background:new    ;}
	.st14{fill:#8686BA;}
</style>
<title>Asset 250</title>
<polygon class="st0" points="164,91.5 161.4,90.3 158.6,90.5 158.9,87.6 157.9,85 160.7,84.4 162.9,82.6 164.3,85.1 166.7,86.7 
	164.8,88.8 "/>
<path class="st1" d="M163.6,60.7c0.1-18.7-12.6-35-30.8-39.4C111.9-2.9,75.5-5.4,51.4,15.5c-4.2,3.7-7.9,7.9-10.9,12.6
	c-22.7,7.8-34.7,32.5-27,55.1c4.3,12.6,14.3,22.6,26.9,26.9c2.4,18.6,19.4,31.8,38,29.5c10.7-1.4,20.1-7.7,25.4-17.1
	c5.2,3.1,11.2,4.7,17.2,4.7c19,0,34.4-15.6,34.4-34.9c0-2.1-0.2-4.3-0.6-6.4C160.5,78.8,163.6,69.8,163.6,60.7z"/>
<g class="st2">
	<path class="st3" d="M48.9,11.6H30.4V2.2h18.5V11.6z M31.2,10.9h17v-8h-17V10.9z"/>
	<path class="st3" d="M62.2,20.9H43.7v-9.5h18.5V20.9z M44.5,20.1h17v-8h-17V20.1z"/>
</g>
<g class="st2">
	<path class="st3" d="M66.6,129.2H48.1v-8.2h18.5V129.2z M48.9,128.4h17v-6.7h-17L48.9,128.4z"/>
	<path class="st3" d="M79.9,137.1H61.4v-8.2h18.5V137.1z M62.2,136.3h17v-6.7h-17L62.2,136.3z"/>
</g>
<g class="st2">
	<path class="st3" d="M163.5,61.4H145v-8.7h18.5V61.4z M145.8,60.7h17v-7.2h-17V60.7z"/>
	<path class="st3" d="M150.2,69.9h-18.5v-8.7h18.5L150.2,69.9z M132.5,69.1h17v-7.2h-17V69.1z"/>
</g>
<polygon class="st0" points="137,8.9 134.4,7.7 131.6,7.8 131.9,5 130.9,2.3 133.7,1.8 135.9,0 137.3,2.5 139.7,4.1 137.8,6.1 "/>
<polygon class="st0" points="13.5,16.2 10.9,15 8.1,15.1 8.4,12.3 7.4,9.6 10.2,9.1 12.4,7.3 13.8,9.8 16.2,11.4 14.2,13.4 "/>
<polygon class="st0" points="105,138.6 102.4,137.4 99.5,137.6 99.9,134.8 98.8,132.1 101.7,131.6 103.9,129.7 105.3,132.2 
	107.7,133.8 105.7,135.9 "/>
<polygon class="st0" points="6.1,109.1 3.5,107.9 0.7,108.1 1,105.3 0,102.6 2.8,102 5,100.2 6.4,102.7 8.8,104.3 6.9,106.4 "/>
<path class="st4" d="M137.6,38.5l0.1,4.1c0,0.3,0.4,0.6,0.7,0.5c0.3,0,0.5-0.3,0.5-0.5l-0.1-4.1c0-0.3-0.4-0.6-0.7-0.5
	C137.8,38,137.6,38.3,137.6,38.5z"/>
<path class="st4" d="M134.9,31.5h3.4l-0.6-0.6v3.1c0,0.3,0.4,0.6,0.7,0.5c0.3,0,0.5-0.3,0.5-0.5v-3.1c0-0.3-0.3-0.6-0.6-0.6h-3.4
	c-0.3,0-0.6,0.4-0.5,0.7C134.4,31.2,134.6,31.5,134.9,31.5L134.9,31.5z"/>
<rect x="24.7" y="20.5" class="st5" width="118.3" height="98.4"/>
<rect x="25.1" y="20.4" class="st4" width="118.3" height="3.3"/>
<path class="st6" d="M83.8,84.2"/>
<rect x="24.4" y="101.7" class="st7" width="119.4" height="17.3"/>
<rect x="29" y="45.8" class="st4" width="106.9" height="65.1"/>
<polygon class="st8" points="29,45.6 59.9,45.6 55.8,39.4 33,39.4 "/>
<polygon class="st9" points="59.9,45.6 90.8,45.6 86.7,39.4 64,39.4 "/>
<path class="st10" d="M141.3,120.7H26.2c-2.2,0-3.9-1.8-4-3.9V22.4c0-2.2,1.8-3.9,4-4h115.1c2.2,0,3.9,1.8,3.9,4v94.3
	C145.2,118.9,143.5,120.7,141.3,120.7z M26.2,20.5c-1.1,0-1.9,0.9-2,2v94.3c0,1.1,0.9,1.9,2,1.9h115.1c1.1,0,2-0.9,1.9-2V22.4
	c0-1.1-0.9-1.9-1.9-2H26.2z"/>
<circle class="st4" cx="130.2" cy="33.4" r="4.7"/>
<circle class="st4" cx="114.9" cy="33.4" r="4.7"/>
<circle class="st4" cx="99.6" cy="33.4" r="4.7"/>
<circle class="st11" cx="50.7" cy="32.1" r="2.8"/>
<circle class="st8" cx="41.5" cy="32.1" r="2.8"/>
<circle class="st12" cx="32.4" cy="32.1" r="2.8"/>
<path class="st13" d="M51,31.8c1,0,1.8,0.5,2.4,1.3c0.1-0.2,0.1-0.5,0.1-0.8c0-1.6-1.2-2.8-2.8-2.8c-1.6,0-2.8,1.2-2.8,2.8
	c0,0.5,0.2,1.1,0.4,1.5C48.6,32.6,49.7,31.8,51,31.8z"/>
<path class="st13" d="M42,31.8c1,0,1.8,0.5,2.4,1.3c0.1-0.2,0.1-0.5,0.1-0.8c0-1.6-1.2-2.8-2.8-2.8s-2.8,1.2-2.8,2.8
	c0,0.5,0.2,1.1,0.4,1.5C39.6,32.6,40.7,31.8,42,31.8z"/>
<path class="st13" d="M32.8,31.8c1,0,1.8,0.5,2.4,1.3c0.1-0.2,0.1-0.5,0.1-0.8c0-1.6-1.2-2.8-2.8-2.8c-1.6,0-2.8,1.2-2.8,2.8
	c0,0.5,0.2,1.1,0.4,1.5C30.4,32.6,31.5,31.8,32.8,31.8z"/>
<g>
	<circle class="st7" cx="82.5" cy="78.4" r="19.2"/>
	<path class="st0" d="M82.5,93.5c-8.3,0-15.1-6.8-15.1-15.1s6.8-15.1,15.1-15.1S97.6,70,97.6,78.4S90.8,93.5,82.5,93.5z"/>
	<path class="st4" d="M66,70.2h5.5l6.3,16.2l3.9-9l-2.7-6.9l6.1-0.3l5.8,16.2l3.4-8.9l-1.1-4.2l-1.3-3.6c0,0,0.5-3.1,2-3.1
		s3.9-0.4,4.5,1c0.6,1.4,0.5,4-0.4,6.9S89.5,96,89.5,96l-0.6,0.1l-6-15.6l-6.5,16l-0.7-0.2L66,70.2z"/>
	<path class="st14" d="M98.9,67.3c0-0.1-0.1-0.2-0.2-0.3c-0.1-0.2-0.3-0.4-0.4-0.5c-6.6-8.8-19.1-10.5-27.9-3.9
		c-2.3,1.7-4.2,4-5.6,6.5l0,0.1c-5.1,9.7-1.3,21.8,8.4,26.9c0.8,0.4,1.7,0.8,2.6,1.1h0.1c10.4,3.6,21.7-1.9,25.3-12.3
		C103.2,78.9,102.4,72.4,98.9,67.3z M95.2,80.1l-5.9,15.1l-5.9-15.1l0,0c0,0-0.1-0.1-0.1-0.1c0-0.1-0.1-0.1-0.2-0.2
		c0,0-0.1-0.1-0.1-0.1l0,0c0,0-0.1,0-0.1,0c-0.1,0-0.2,0-0.3,0c0,0-0.1,0-0.1,0l0,0c0,0-0.1,0.1-0.1,0.1c-0.1,0-0.1,0.1-0.1,0.1
		c0,0-0.1,0.1-0.1,0.1l0,0l-5.9,15.1l-9.5-24.3H71L77.2,87l0,0V87c0,0.1,0.1,0.1,0.1,0.1l0.1,0.1c0,0,0.1,0.1,0.2,0.1h0l0,0
		c0.1,0.1,0.3,0.1,0.5,0l0,0h0c0.1,0,0.1-0.1,0.2-0.1l0.1-0.1c0,0,0.1-0.1,0.1-0.1V87l0,0l3.7-9.5v0c0,0,0,0,0-0.1
		c0-0.1,0-0.2,0-0.3c0,0,0-0.1,0-0.1l-2.3-6.1H84L90.2,87l0,0V87c0,0.1,0.1,0.1,0.1,0.1l0.1,0.1c0,0,0.1,0.1,0.2,0.1h0l0,0
		c0.1,0,0.1,0,0.2,0l0,0h0.1c0,0,0.1,0,0.1,0l0,0c0.1,0,0.1,0,0.2-0.1c0.1,0,0.1-0.1,0.2-0.2c0,0,0.1-0.1,0.1-0.1l0,0l3.2-8.2
		c0.7-2.4-0.2-4.2-1-5.8c-0.7-1.4-1.3-2.5-1-3.9c0.2-1.2,1.2-2.2,2.4-2.4c0.8-0.2,1.6,0,2.2,0.6c0.1,0.2,0.3,0.4,0.4,0.6
		C98.7,70.1,96.7,76.4,95.2,80.1z M82.5,59.9c4.9,0,9.7,2,13.1,5.5c-0.2,0-0.5,0-0.7,0.1c-1.7,0.3-3.1,1.6-3.5,3.4
		c-0.4,1.9,0.3,3.4,1.1,4.9c0.7,1.4,1.5,2.9,0.9,4.7l-2.5,6.5l-5.3-14h1.1c0.4,0,0.7-0.3,0.7-0.7s-0.3-0.7-0.7-0.7H77
		c-0.4,0-0.7,0.3-0.7,0.7s0.3,0.7,0.7,0.7h1.4l2.5,6.3l-3,7.7l-5.3-14h1.7c0.4,0,0.7-0.3,0.7-0.7s-0.3-0.7-0.7-0.7h-8
		C69.5,63.5,75.7,59.9,82.5,59.9z M63.9,78.4c0-2.5,0.5-5,1.5-7.2l9.4,24.1C68.2,92.2,63.9,85.7,63.9,78.4z M77.3,96.2l5.4-14
		L88.1,96C84.6,97.1,80.9,97.2,77.3,96.2z M90.8,94.9l5.6-14.3c0.3-0.8,2.5-5.9,2.9-9.9C103.4,79.7,99.7,90.4,90.8,94.9L90.8,94.9z"
		/>
</g>
</svg>
